D.sfdir
StartChar: exclam
Encoding: 33 33 4
Width: 399
VWidth: 1754
Flags: W
LayerCount: 2
Fore
SplineSet
277 716 m 1,0,-1
 224 277 l 1,1,-1
 164 277 l 1,2,-1
 123 713 l 1,3,-1
 123 1000 l 1,4,-1
 277 1000 l 1,5,-1
 277 716 l 1,0,-1
281 63 m 0,6,7
 281 29 281 29 258.5 6 c 128,-1,8
 236 -17 236 -17 204 -17 c 0,9,10
 170 -17 170 -17 146.5 6 c 128,-1,11
 123 29 123 29 123 63 c 0,12,13
 123 96 123 96 146.5 118 c 128,-1,14
 170 140 170 140 204 140 c 0,15,16
 237 140 237 140 259 118 c 128,-1,17
 281 96 281 96 281 63 c 0,6,7
EndSplineSet
EndChar
StartChar: quotedbl
Encoding: 34 34 5
Width: 419
Flags: W
LayerCount: 2
Fore
SplineSet
350 584 m 1,0,-1
 332 350 l 1,1,-1
 254 350 l 1,2,-1
 236 584 l 1,3,-1
 350 584 l 1,0,-1
182 584 m 1,4,-1
 164 350 l 1,5,-1
 88 350 l 1,6,-1
 70 584 l 1,7,-1
 182 584 l 1,4,-1
EndSplineSet
EndChar
StartChar: numbersign
Encoding: 35 35 6
Width: 964
VWidth: 1754
Flags: W
LayerCount: 2
Fore
SplineSet
904 723 m 1,0,-1
 887 596 l 1,1,-1
 726 596 l 1,2,-1
 702 425 l 1,3,-1
 860 425 l 1,4,-1
 843 298 l 1,5,-1
 683 298 l 1,6,-1
 635 0 l 1,7,-1
 488 0 l 1,8,-1
 536 298 l 1,9,-1
 361 298 l 1,10,-1
 315 0 l 1,11,-1
 175 0 l 1,12,-1
 221 298 l 1,13,-1
 60 298 l 1,14,-1
 77 425 l 1,15,-1
 238 425 l 1,16,-1
 267 596 l 1,17,-1
 104 596 l 1,18,-1
 123 723 l 1,19,-1
 284 723 l 1,20,-1
 331 1000 l 1,21,-1
 469 1000 l 1,22,-1
 425 723 l 1,23,-1
 603 723 l 1,24,-1
 646 1000 l 1,25,-1
 790 1000 l 1,26,-1
 747 723 l 1,27,-1
 904 723 l 1,0,-1
582 596 m 1,28,-1
 408 596 l 1,29,-1
 382 425 l 1,30,-1
 558 425 l 1,31,-1
 582 596 l 1,28,-1
EndSplineSet
EndChar
StartChar: dollar
Encoding: 36 36 7
Width: 454
Flags: W
LayerCount: 2
Fore
SplineSet
426 168 m 0,0,1
 426 86 426 86 369 35 c 0,2,3
 335 4 335 4 279 -10 c 1,4,-1
 279 -84 l 1,5,-1
 186 -84 l 1,6,7
 184 -4 184 -4 186 -2 c 1,8,9
 79 22 79 22 29 137 c 1,10,-1
 117 170 l 1,11,12
 156 84 156 84 242 84 c 0,13,14
 281 84 281 84 306.5 108.5 c 128,-1,15
 332 133 332 133 332 170 c 0,16,17
 332 192 332 192 323 209 c 128,-1,18
 314 226 314 226 294.5 238 c 128,-1,19
 275 250 275 250 258.5 257 c 128,-1,20
 242 264 242 264 211.5 274.5 c 128,-1,21
 181 285 181 285 166 291 c 0,22,23
 53 336 53 336 53 436 c 0,24,25
 53 570 53 570 186 590 c 1,26,-1
 186 590 l 1,27,-1
 186 590 l 1,28,-1
 186 591 l 1,29,-1
 186 591 l 1,30,-1
 186 592 l 1,31,-1
 186 593 l 1,32,-1
 186 594 l 1,33,-1
 186 595 l 1,34,-1
 186 596 l 1,35,-1
 186 597 l 1,36,-1
 186 598 l 1,37,-1
 186 599 l 1,38,-1
 186 600 l 1,39,-1
 186 601 l 1,40,-1
 186 602 l 1,41,-1
 186 603 l 1,42,-1
 186 604 l 1,43,-1
 186 605 l 1,44,-1
 186 606 l 1,45,-1
 186 607 l 1,46,-1
 186 608 l 1,47,-1
 186 609 l 1,48,-1
 186 611 l 1,49,-1
 186 612 l 1,50,-1
 186 613 l 1,51,-1
 186 614 l 1,52,-1
 186 616 l 1,53,-1
 186 617 l 1,54,-1
 186 618 l 1,55,-1
 186 620 l 1,56,-1
 186 621 l 1,57,-1
 186 622 l 1,58,-1
 186 624 l 1,59,-1
 186 625 l 1,60,-1
 186 627 l 1,61,-1
 186 628 l 1,62,-1
 186 630 l 1,63,-1
 186 631 l 1,64,-1
 186 633 l 1,65,-1
 186 634 l 1,66,-1
 186 636 l 1,67,-1
 186 637 l 1,68,-1
 186 639 l 1,69,-1
 186 640 l 1,70,-1
 186 642 l 1,71,-1
 186 644 l 1,72,-1
 186 645 l 1,73,-1
 186 647 l 1,74,-1
 186 649 l 1,75,-1
 186 650 l 1,76,-1
 186 652 l 1,77,-1
 186 654 l 1,78,-1
 186 655 l 1,79,-1
 186 657 l 1,80,-1
 186 659 l 1,81,-1
 186 661 l 1,82,-1
 186 670 l 1,83,-1
 279 670 l 1,84,-1
 279 590 l 1,85,86
 364 570 364 570 401 475 c 1,87,-1
 319 451 l 1,88,89
 317 456 317 456 311.5 464.5 c 128,-1,90
 306 473 306 473 284 487 c 128,-1,91
 262 501 262 501 233 502 c 0,92,93
 195 504 195 504 167.5 487 c 128,-1,94
 140 470 140 470 143 434 c 0,95,96
 145 405 145 405 175 387.5 c 128,-1,97
 205 370 205 370 246 358.5 c 128,-1,98
 287 347 287 347 328 330 c 128,-1,99
 369 313 369 313 397.5 272.5 c 128,-1,100
 426 232 426 232 426 168 c 0,0,1
EndSplineSet
EndChar
StartChar: ampersand
Encoding: 38 38 8
Width: 577
Flags: W
LayerCount: 2
Fore
SplineSet
578 0 m 1,0,-1
 453 0 l 1,1,-1
 403 61 l 1,2,3
 365 21 365 21 328 4.5 c 128,-1,4
 291 -12 291 -12 242 -12 c 0,5,6
 160 -12 160 -12 108.5 35.5 c 128,-1,7
 57 83 57 83 57 158 c 0,8,9
 57 226 57 226 113 279 c 0,10,11
 114 281 114 281 119.5 286.5 c 128,-1,12
 125 292 125 292 127 294.5 c 128,-1,13
 129 297 129 297 134 302 c 128,-1,14
 139 307 139 307 142.5 310 c 128,-1,15
 146 313 146 313 152 317.5 c 128,-1,16
 158 322 158 322 165 326 c 128,-1,17
 172 330 172 330 180 334 c 1,18,19
 149 375 149 375 138 402 c 128,-1,20
 127 429 127 429 127 461 c 0,21,22
 127 518 127 518 167.5 555 c 128,-1,23
 208 592 208 592 274 592 c 0,24,25
 336 592 336 592 375 554.5 c 128,-1,26
 414 517 414 517 414 459 c 0,27,28
 414 414 414 414 391.5 379.5 c 128,-1,29
 369 345 369 345 317 311 c 1,30,-1
 401 207 l 1,31,32
 416 253 416 253 418 283 c 1,33,-1
 506 283 l 1,34,35
 501 234 501 234 491.5 202 c 128,-1,36
 482 170 482 170 461 137 c 1,37,-1
 578 0 l 1,0,-1
326 457 m 0,38,39
 326 483 326 483 311 498.5 c 128,-1,40
 296 514 296 514 272 514 c 0,41,42
 249 514 249 514 233 499.5 c 128,-1,43
 217 485 217 485 217 463 c 0,44,45
 217 442 217 442 231 420 c 0,46,47
 232 417 232 417 235 413 c 128,-1,48
 238 409 238 409 242.5 403.5 c 128,-1,49
 247 398 247 398 250 393 c 0,50,51
 252 391 252 391 256 383 c 1,52,-1
 264 375 l 1,53,54
 298 397 298 397 312 415.5 c 128,-1,55
 326 434 326 434 326 457 c 0,38,39
348 131 m 1,56,-1
 240 264 l 1,57,58
 195 239 195 239 175.5 215 c 128,-1,59
 156 191 156 191 156 160 c 0,60,61
 156 125 156 125 182.5 99.5 c 128,-1,62
 209 74 209 74 246 74 c 0,63,64
 302 74 302 74 348 131 c 1,56,-1
EndSplineSet
EndChar
StartChar: quotesingle
Encoding: 39 39 9
Width: 151
Flags: W
LayerCount: 2
Fore
SplineSet
129 519 m 0,0,1
 129 458 129 458 80 418 c 1,2,-1
 49 437 l 1,3,4
 71 456 71 456 82 482 c 1,5,-1
 76 482 l 2,6,7
 51 482 51 482 37 494.5 c 128,-1,8
 23 507 23 507 23 529 c 0,9,10
 23 552 23 552 38.5 568 c 128,-1,11
 54 584 54 584 76 584 c 0,12,13
 100 584 100 584 114.5 566.5 c 128,-1,14
 129 549 129 549 129 519 c 0,0,1
EndSplineSet
EndChar
StartChar: parenleft
Encoding: 40 40 10
Width: 274
Flags: W
LayerCount: 2
Fore
SplineSet
252 0 m 1,0,1
 160 0 160 0 158 2 c 0,2,3
 110 52 110 52 83.5 133 c 128,-1,4
 57 214 57 214 57 293 c 0,5,6
 57 475 57 475 160 584 c 1,7,-1
 252 584 l 1,8,9
 152 447 152 447 152 293 c 0,10,11
 152 132 152 132 252 0 c 1,0,1
EndSplineSet
EndChar
StartChar: parenright
Encoding: 41 41 11
Width: 473
VWidth: 1754
Flags: W
LayerCount: 2
Fore
SplineSet
373 502 m 0,0,1
 373 365 373 365 329 226 c 128,-1,2
 285 87 285 87 201 3 c 1,3,4
 201 0 201 0 40 0 c 1,5,6
 211 226 211 226 212 502 c 0,7,8
 212 764 212 764 44 1000 c 1,9,-1
 201 1000 l 1,10,11
 373 814 373 814 373 502 c 0,0,1
EndSplineSet
EndChar
StartChar: asterisk
Encoding: 42 42 12
Width: 697
VWidth: 1754
Flags: W
LayerCount: 2
Fore
SplineSet
617 743 m 1,0,-1
 512 716 l 1,1,-1
 473 709 l 1,2,3
 492 694 492 694 498 687 c 0,4,5
 512 672 512 672 538.5 636 c 128,-1,6
 565 600 565 600 569 596 c 1,7,-1
 445 502 l 1,8,9
 375 579 375 579 368 593 c 2,10,-1
 348 632 l 1,11,-1
 331 593 l 1,12,-1
 257 505 l 1,13,-1
 130 593 l 1,14,15
 173 656 173 656 194 677 c 0,16,17
 199 684 199 684 207.5 693 c 128,-1,18
 216 702 216 702 223 707 c 2,19,-1
 228 713 l 1,20,21
 197 716 197 716 187 719 c 1,22,23
 165 721 165 721 81 747 c 1,24,-1
 123 891 l 1,25,26
 140 886 140 886 171 880.5 c 128,-1,27
 202 875 202 875 218 870 c 2,28,-1
 277 850 l 1,29,30
 267 884 267 884 267 898 c 2,31,-1
 267 1000 l 1,32,-1
 428 1000 l 1,33,-1
 432 901 l 1,34,-1
 418 846 l 1,35,36
 457 863 457 863 478 870 c 0,37,38
 495 875 495 875 531 881 c 128,-1,39
 567 887 567 887 576 891 c 1,40,-1
 617 743 l 1,0,-1
EndSplineSet
EndChar
StartChar: plus
Encoding: 43 43 13
Width: 425
Flags: W
LayerCount: 2
Fore
SplineSet
410 240 m 1,0,-1
 260 240 l 1,1,-1
 260 94 l 1,2,-1
 168 94 l 1,3,-1
 168 240 l 1,4,-1
 18 240 l 1,5,-1
 18 334 l 1,6,-1
 168 334 l 1,7,-1
 168 479 l 1,8,-1
 260 479 l 1,9,-1
 260 334 l 1,10,-1
 410 334 l 1,11,-1
 410 240 l 1,0,-1
EndSplineSet
EndChar
StartChar: comma
Encoding: 44 44 14
Width: 151
Flags: W
LayerCount: 2
Fore
SplineSet
129 33 m 0,0,1
 129 -28 129 -28 80 -68 c 1,2,-1
 49 -49 l 1,3,4
 71 -30 71 -30 82 -4 c 1,5,-1
 76 -4 l 2,6,7
 51 -4 51 -4 37 8.5 c 128,-1,8
 23 21 23 21 23 43 c 0,9,10
 23 66 23 66 38.5 82 c 128,-1,11
 54 98 54 98 76 98 c 0,12,13
 100 98 100 98 114.5 80.5 c 128,-1,14
 129 63 129 63 129 33 c 0,0,1
EndSplineSet
EndChar
StartChar: hyphen
Encoding: 45 45 15
AltUni2: 0000ad.ffffffff.0
Width: 241
Flags: W
LayerCount: 2
Fore
SplineSet
223 242 m 1,0,-1
 18 242 l 1,1,-1
 18 334 l 1,2,-1
 223 334 l 1,3,-1
 223 242 l 1,0,-1
EndSplineSet
EndChar
StartChar: period
Encoding: 46 46 16
Width: 151
Flags: W
LayerCount: 2
Fore
SplineSet
127 47 m 128,-1,1
 127 25 127 25 112.5 9.5 c 128,-1,2
 98 -6 98 -6 76 -6 c 128,-1,3
 54 -6 54 -6 38.5 9.5 c 128,-1,4
 23 25 23 25 23 47 c 128,-1,5
 23 69 23 69 38.5 83.5 c 128,-1,6
 54 98 54 98 76 98 c 128,-1,7
 98 98 98 98 112.5 83.5 c 128,-1,0
 127 69 127 69 127 47 c 128,-1,1
EndSplineSet
EndChar
StartChar: slash
Encoding: 47 47 17
Width: 739
VWidth: 1754
Flags: W
LayerCount: 2
Fore
SplineSet
740 1004 m 1,0,-1
 161 0 l 1,1,-1
 0 0 l 1,2,-1
 579 1004 l 1,3,-1
 740 1004 l 1,0,-1
EndSplineSet
Substitution2: "'frac' Diagonal Fractions in Latin lookup 1 subtable" fraction
EndChar
StartChar: one
Encoding: 49 49 19
Width: 274
Flags: W
LayerCount: 2
Fore
SplineSet
205 0 m 1,0,-1
 111 0 l 1,1,-1
 111 473 l 1,2,-1
 57 473 l 1,3,-1
 57 547 l 1,4,-1
 63 547 l 2,5,6
 105 547 105 547 131 584 c 1,7,-1
 205 584 l 1,8,-1
 205 0 l 1,0,-1
EndSplineSet
Substitution2: "'sinf' Scientific Inferiors in Latin lookup 0 subtable" uni2081
EndChar
StartChar: two
Encoding: 50 50 20
Width: 512
Flags: W
LayerCount: 2
Fore
SplineSet
455 0 m 1,0,-1
 57 0 l 1,1,2
 60 101 60 101 106 178 c 1,3,4
 140 239 140 239 209 291 c 1,5,6
 224 300 224 300 236 309 c 1,7,-1
 266 326 l 1,8,-1
 295 342 l 1,9,-1
 324 358 l 1,10,11
 362 381 362 381 362 422 c 0,12,13
 362 454 362 454 330.5 477 c 128,-1,14
 299 500 299 500 256 500 c 0,15,16
 165 500 165 500 150 418 c 1,17,-1
 57 438 l 1,18,19
 72 510 72 510 125.5 552 c 128,-1,20
 179 594 179 594 256 594 c 0,21,22
 339 594 339 594 397 543 c 128,-1,23
 455 492 455 492 455 420 c 0,24,25
 455 349 455 349 395 295 c 1,26,27
 379 283 379 283 371 279 c 1,28,-1
 342 260 l 1,29,-1
 311 244 l 1,30,-1
 283 227 l 2,31,32
 241 202 241 202 215 172.5 c 128,-1,33
 189 143 189 143 168 94 c 1,34,-1
 455 94 l 1,35,-1
 455 0 l 1,0,-1
EndSplineSet
Substitution2: "'sinf' Scientific Inferiors in Latin lookup 0 subtable" uni2082
EndChar
StartChar: three
Encoding: 51 51 21
Width: 501
Flags: W
LayerCount: 2
Fore
SplineSet
442 193 m 0,0,1
 442 103 442 103 386.5 46.5 c 128,-1,2
 331 -10 331 -10 242 -10 c 0,3,4
 172 -10 172 -10 119 32 c 128,-1,5
 66 74 66 74 47 145 c 1,6,-1
 137 172 l 1,7,8
 159 84 159 84 246 84 c 0,9,10
 292 84 292 84 321 113 c 128,-1,11
 350 142 350 142 350 186 c 0,12,13
 350 237 350 237 317 260 c 0,14,15
 307 267 307 267 299 268.5 c 128,-1,16
 291 270 291 270 258 272 c 1,17,-1
 248 272 l 1,18,-1
 248 367 l 1,19,-1
 248 365 l 1,20,-1
 250 365 l 1,21,-1
 252 365 l 1,22,-1
 270 365 l 2,23,24
 328 365 328 365 328 422 c 0,25,26
 328 456 328 456 304 478 c 128,-1,27
 280 500 280 500 244 500 c 0,28,29
 186 500 186 500 156 442 c 1,30,-1
 70 475 l 1,31,32
 93 531 93 531 139 562.5 c 128,-1,33
 185 594 185 594 242 594 c 0,34,35
 316 594 316 594 368 542 c 128,-1,36
 420 490 420 490 420 416 c 0,37,38
 420 368 420 368 387 319 c 1,39,40
 419 290 419 290 430.5 263 c 128,-1,41
 442 236 442 236 442 193 c 0,0,1
EndSplineSet
Substitution2: "'sinf' Scientific Inferiors in Latin lookup 0 subtable" uni2083
EndChar
StartChar: four
Encoding: 52 52 22
Width: 887
VWidth: 1754
Flags: W
LayerCount: 2
Fore
SplineSet
769 248 m 1,0,-1
 673 248 l 1,1,-1
 673 0 l 1,2,-1
 516 0 l 1,3,-1
 516 248 l 1,4,-1
 21 248 l 1,5,-1
 21 344 l 1,6,-1
 516 1000 l 1,7,-1
 673 1000 l 1,8,-1
 673 392 l 1,9,-1
 769 392 l 1,10,-1
 769 248 l 1,0,-1
516 392 m 1,11,-1
 516 769 l 1,12,-1
 231 392 l 1,13,-1
 516 392 l 1,11,-1
EndSplineSet
Substitution2: "'sinf' Scientific Inferiors in Latin lookup 0 subtable" uni2084
EndChar
StartChar: five
Encoding: 53 53 23
Width: 877
VWidth: 1754
Flags: W
LayerCount: 2
Fore
SplineSet
779 368 m 0,0,1
 779 202 779 202 656 92.5 c 128,-1,2
 533 -17 533 -17 344 -17 c 0,3,4
 214 -17 214 -17 98 39 c 1,5,-1
 175 178 l 1,6,7
 247 144 247 144 365 144 c 0,8,9
 473 144 473 144 546.5 207.5 c 128,-1,10
 620 271 620 271 620 368 c 0,11,12
 620 442 620 442 568 492.5 c 128,-1,13
 516 543 516 543 442 543 c 0,14,15
 389 543 389 543 357 522.5 c 128,-1,16
 325 502 325 502 281 438 c 1,17,-1
 123 485 l 1,18,-1
 147 1000 l 1,19,-1
 723 1000 l 1,20,-1
 723 843 l 1,21,-1
 301 843 l 1,22,-1
 291 677 l 1,23,24
 395 706 395 706 445 706 c 0,25,26
 580 706 580 706 679.5 605.5 c 128,-1,27
 779 505 779 505 779 368 c 0,0,1
EndSplineSet
Substitution2: "'sinf' Scientific Inferiors in Latin lookup 0 subtable" uni2085
EndChar
StartChar: six
Encoding: 54 54 24
Width: 881
VWidth: 1754
Flags: W
LayerCount: 2
Fore
SplineSet
781 288 m 0,0,1
 781 160 781 160 683.5 71.5 c 128,-1,2
 586 -17 586 -17 440 -17 c 0,3,4
 296 -17 296 -17 198 75.5 c 128,-1,5
 100 168 100 168 100 301 c 0,6,7
 100 508 100 508 206 704.5 c 128,-1,8
 312 901 312 901 487 1017 c 1,9,-1
 567 884 l 1,10,11
 476 814 476 814 421.5 746 c 128,-1,12
 367 678 367 678 321 582 c 1,13,14
 378 592 378 592 440 593 c 0,15,16
 580 593 580 593 680.5 503 c 128,-1,17
 781 413 781 413 781 288 c 0,0,1
622 291 m 0,18,19
 622 349 622 349 569 392 c 128,-1,20
 516 435 516 435 440 435 c 0,21,22
 366 435 366 435 314 392 c 128,-1,23
 262 349 262 349 262 291 c 0,24,25
 262 231 262 231 314.5 187.5 c 128,-1,26
 367 144 367 144 440.5 144 c 128,-1,27
 514 144 514 144 568 187.5 c 128,-1,28
 622 231 622 231 622 291 c 0,18,19
EndSplineSet
Substitution2: "'sinf' Scientific Inferiors in Latin lookup 0 subtable" uni2086
EndChar
StartChar: seven
Encoding: 55 55 25
Width: 817
VWidth: 1754
Flags: W
LayerCount: 2
Fore
SplineSet
747 843 m 1,0,1
 735 828 735 828 717 805.5 c 128,-1,2
 699 783 699 783 686 765 c 128,-1,3
 673 747 673 747 659 723 c 0,4,5
 519 487 519 487 473 245 c 1,6,7
 452 120 452 120 452 0 c 1,8,-1
 291 0 l 1,9,10
 296 336 296 336 435 635 c 0,11,12
 474 724 474 724 546 843 c 1,13,-1
 70 843 l 1,14,-1
 70 1000 l 1,15,-1
 747 1000 l 1,16,-1
 747 843 l 1,0,1
EndSplineSet
Substitution2: "'sinf' Scientific Inferiors in Latin lookup 0 subtable" uni2087
EndChar
StartChar: eight
Encoding: 56 56 26
Width: 877
VWidth: 1754
Flags: W
LayerCount: 2
Fore
SplineSet
779 319 m 0,0,1
 779 184 779 184 677.5 83.5 c 128,-1,2
 576 -17 576 -17 438.5 -17 c 128,-1,3
 301 -17 301 -17 199.5 83 c 128,-1,4
 98 183 98 183 98 319 c 0,5,6
 98 458 98 458 214 552 c 1,7,8
 140 631 140 631 140 733 c 0,9,10
 140 848 140 848 228.5 932.5 c 128,-1,11
 317 1017 317 1017 438.5 1017 c 128,-1,12
 560 1017 560 1017 650 932.5 c 128,-1,13
 740 848 740 848 740 733 c 0,14,15
 740 634 740 634 663 552 c 1,16,17
 779 461 779 461 779 319 c 0,0,1
579 737 m 0,18,19
 579 787 579 787 538 821.5 c 128,-1,20
 497 856 497 856 438.5 856 c 128,-1,21
 380 856 380 856 339 821 c 128,-1,22
 298 786 298 786 298 737 c 0,23,24
 298 692 298 692 339 660.5 c 128,-1,25
 380 629 380 629 438.5 629 c 128,-1,26
 497 629 497 629 538 660.5 c 128,-1,27
 579 692 579 692 579 737 c 0,18,19
620 315 m 0,28,29
 620 377 620 377 566 421.5 c 128,-1,30
 512 466 512 466 438.5 466 c 128,-1,31
 365 466 365 466 312.5 422.5 c 128,-1,32
 260 379 260 379 260 315 c 0,33,34
 260 245 260 245 312.5 194.5 c 0,35,36
 364 144 364 144 438 144 c 0,37,38
 513 144 513 144 566.5 194.5 c 128,-1,39
 620 245 620 245 620 315 c 0,28,29
EndSplineSet
Substitution2: "'sinf' Scientific Inferiors in Latin lookup 0 subtable" uni2088
EndChar
StartChar: nine
Encoding: 57 57 27
Width: 512
Flags: W
LayerCount: 2
Fore
SplineSet
455 408 m 0,0,1
 455 288 455 288 393 173.5 c 128,-1,2
 331 59 331 59 229 -10 c 1,3,-1
 184 68 l 1,4,5
 236 109 236 109 268 149 c 128,-1,6
 300 189 300 189 326 246 c 1,7,8
 282 238 282 238 256 238 c 0,9,10
 174 238 174 238 115.5 290.5 c 128,-1,11
 57 343 57 343 57 416 c 0,12,13
 57 491 57 491 115 542.5 c 128,-1,14
 173 594 173 594 256 594 c 0,15,16
 341 594 341 594 398 540.5 c 128,-1,17
 455 487 455 487 455 408 c 0,0,1
362 416 m 0,18,19
 362 450 362 450 330.5 475 c 128,-1,20
 299 500 299 500 256 500 c 128,-1,21
 213 500 213 500 182.5 475.5 c 128,-1,22
 152 451 152 451 152 416 c 128,-1,23
 152 381 152 381 182.5 356.5 c 128,-1,24
 213 332 213 332 256 332 c 0,25,26
 300 332 300 332 331 356.5 c 128,-1,27
 362 381 362 381 362 416 c 0,18,19
EndSplineSet
Substitution2: "'sinf' Scientific Inferiors in Latin lookup 0 subtable" uni2089
EndChar
StartChar: colon
Encoding: 58 58 28
Width: 258
VWidth: 1754
Flags: W
LayerCount: 2
Fore
SplineSet
218 492 m 0,0,1
 218 454 218 454 192.5 426.5 c 128,-1,2
 167 399 167 399 131 399 c 0,3,4
 93 399 93 399 66.5 426.5 c 128,-1,5
 40 454 40 454 40 491.5 c 128,-1,6
 40 529 40 529 66.5 554 c 128,-1,7
 93 579 93 579 131 579 c 0,8,9
 167 579 167 579 192.5 553.5 c 128,-1,10
 218 528 218 528 218 492 c 0,0,1
218 74 m 0,11,12
 218 36 218 36 193 9.5 c 128,-1,13
 168 -17 168 -17 130.5 -17 c 128,-1,14
 93 -17 93 -17 66.5 9.5 c 128,-1,15
 40 36 40 36 40 74 c 0,16,17
 40 108 40 108 66.5 134.5 c 128,-1,18
 93 161 93 161 131 161 c 0,19,20
 165 161 165 161 191.5 134.5 c 128,-1,21
 218 108 218 108 218 74 c 0,11,12
EndSplineSet
EndChar
StartChar: equal
Encoding: 61 61 29
Width: 425
Flags: W
LayerCount: 2
Fore
SplineSet
410 319 m 1,0,-1
 18 319 l 1,1,-1
 18 412 l 1,2,-1
 410 412 l 1,3,-1
 410 319 l 1,0,-1
410 160 m 1,4,-1
 18 160 l 1,5,-1
 18 254 l 1,6,-1
 410 254 l 1,7,-1
 410 160 l 1,4,-1
EndSplineSet
EndChar
StartChar: question
Encoding: 63 63 30
Width: 456
Flags: W
LayerCount: 2
Fore
SplineSet
416 434 m 0,0,1
 416 386 416 386 397.5 354.5 c 128,-1,2
 379 323 379 323 322 276 c 0,3,4
 298 256 298 256 290 244.5 c 128,-1,5
 282 233 282 233 276 213 c 0,6,7
 272 198 272 198 270 158 c 1,8,-1
 184 158 l 1,9,10
 184 195 184 195 186 205 c 1,11,12
 189 252 189 252 215 285 c 0,13,14
 232 306 232 306 274 342 c 0,15,16
 324 386 324 386 324 430 c 0,17,18
 324 470 324 470 299 493 c 128,-1,19
 274 516 274 516 233 516 c 0,20,21
 141 516 141 516 135 399 c 1,22,-1
 41 399 l 1,23,24
 44 476 44 476 76 522 c 1,25,26
 134 596 134 596 238 596 c 0,27,28
 317 596 317 596 366.5 550.5 c 128,-1,29
 416 505 416 505 416 434 c 0,0,1
172 43 m 0,30,31
 172 66 172 66 188 82 c 128,-1,32
 204 98 204 98 227 98 c 0,33,34
 249 98 249 98 265 82 c 128,-1,35
 281 66 281 66 281 43 c 0,36,37
 281 21 281 21 265 5.5 c 128,-1,38
 249 -10 249 -10 227 -10 c 0,39,40
 204 -10 204 -10 188 5.5 c 128,-1,41
 172 21 172 21 172 43 c 0,30,31
EndSplineSet
EndChar
StartChar: at
Encoding: 64 64 31
Width: 702
Flags: W
LayerCount: 2
Fore
SplineSet
643 334 m 0,0,1
 643 251 643 251 598.5 187 c 128,-1,2
 554 123 554 123 492 123 c 0,3,4
 446 123 446 123 426 164 c 1,5,6
 384 119 384 119 326 119 c 0,7,8
 269 119 269 119 232 161 c 128,-1,9
 195 203 195 203 195 266 c 0,10,11
 195 340 195 340 242 394.5 c 128,-1,12
 289 449 289 449 356 449 c 0,13,14
 408 449 408 449 438 412 c 1,15,-1
 442 438 l 1,16,-1
 522 438 l 1,17,-1
 487 252 l 2,18,19
 481 222 481 222 481 217 c 0,20,21
 481 195 481 195 496 195 c 0,22,23
 522 195 522 195 545.5 236 c 128,-1,24
 569 277 569 277 569 332 c 0,25,26
 569 417 569 417 513 468.5 c 128,-1,27
 457 520 457 520 365 520 c 0,28,29
 263 520 263 520 200 456.5 c 128,-1,30
 137 393 137 393 137 291 c 0,31,32
 137 195 137 195 199 127 c 1,33,34
 265 61 265 61 369 61 c 0,35,36
 456 61 456 61 547 100 c 1,37,-1
 567 27 l 1,38,39
 476 -12 476 -12 371 -12 c 0,40,41
 234 -12 234 -12 147 72 c 0,42,43
 57 159 57 159 57 293 c 0,44,45
 57 426 57 426 142 510 c 128,-1,46
 227 594 227 594 360 594 c 0,47,48
 483 594 483 594 563 521 c 128,-1,49
 643 448 643 448 643 334 c 0,0,1
414 303 m 0,50,51
 414 332 414 332 399.5 348.5 c 128,-1,52
 385 365 385 365 360 365 c 0,53,54
 329 365 329 365 306 336 c 128,-1,55
 283 307 283 307 283 266 c 0,56,57
 283 236 283 236 298.5 217.5 c 128,-1,58
 314 199 314 199 338 199 c 0,59,60
 369 199 369 199 391.5 228.5 c 128,-1,61
 414 258 414 258 414 303 c 0,50,51
EndSplineSet
EndChar
StartChar: A
Encoding: 65 65 32
Width: 906
VWidth: 1754
Flags: W
LayerCount: 2
Fore
SplineSet
876 0 m 1,0,-1
 708 0 l 1,1,-1
 609 281 l 1,2,-1
 297 281 l 1,3,-1
 199 0 l 1,4,-1
 30 0 l 1,5,-1
 374 1000 l 1,6,-1
 532 1000 l 1,7,-1
 876 0 l 1,0,-1
554 442 m 1,8,-1
 455 723 l 1,9,-1
 354 442 l 1,10,-1
 554 442 l 1,8,-1
EndSplineSet
EndChar
StartChar: B
Encoding: 66 66 33
Width: 495
Flags: W
LayerCount: 2
Fore
SplineSet
467 164 m 0,0,1
 467 116 467 116 440.5 73.5 c 128,-1,2
 414 31 414 31 373 14 c 0,3,4
 338 0 338 0 291 0 c 2,5,-1
 70 0 l 1,6,-1
 70 584 l 1,7,-1
 291 584 l 2,8,9
 360 584 360 584 406.5 541.5 c 128,-1,10
 453 499 453 499 453 436 c 0,11,12
 453 351 453 351 371 305 c 1,13,14
 467 259 467 259 467 164 c 0,0,1
360 432 m 0,15,16
 360 492 360 492 297 492 c 2,17,-1
 162 492 l 1,18,-1
 162 348 l 1,19,-1
 272 348 l 2,20,21
 305 348 305 348 328 365 c 1,22,23
 360 391 360 391 360 432 c 0,15,16
373 162 m 0,24,25
 373 191 373 191 357.5 216 c 128,-1,26
 342 241 342 241 317 250 c 0,27,28
 305 254 305 254 279 254 c 2,29,-1
 162 254 l 1,30,-1
 162 94 l 1,31,-1
 301 94 l 2,32,33
 373 94 373 94 373 162 c 0,24,25
EndSplineSet
EndChar
StartChar: C
Encoding: 67 67 34
Width: 881
VWidth: 1754
Flags: W
LayerCount: 2
Fore
SplineSet
781.014 204 m 1,0,1
 690.014 -17 690.014 -17 480.014 -17 c 0,2,3
 264.014 -17 264.014 -17 173.014 161 c 1,4,5
 99.0137 300 99.0137 300 100.014 502 c 0,6,7
 100.014 622 100.014 622 130.014 730.5 c 128,-1,8
 160.014 839 160.014 839 213.014 904 c 0,9,10
 305.014 1017 305.014 1017 468.014 1017 c 0,11,12
 581.014 1017 581.014 1017 656.514 968.5 c 128,-1,13
 732.014 920 732.014 920 781.014 814 c 1,14,-1
 634.014 750 l 1,15,16
 591.014 813 591.014 813 557.514 834.5 c 128,-1,17
 524.014 856 524.014 856 468.014 856 c 0,18,19
 348.014 856 348.014 856 300.014 733 c 0,20,21
 262.014 639 262.014 639 262.014 502 c 0,22,23
 262.014 320 262.014 320 324.014 221 c 0,24,25
 374.014 144 374.014 144 475.014 144 c 0,26,27
 574.014 144 574.014 144 631.014 260 c 1,28,-1
 781.014 204 l 1,0,1
EndSplineSet
EndChar
StartChar: D
Encoding: 68 68 35
Width: 524
Flags: W
LayerCount: 2
Fore
SplineSet
467 293 m 0,0,1
 467 112 467 112 365 33 c 1,2,3
 331 3 331 3 281 0 c 1,4,-1
 248 0 l 1,5,-1
 70 0 l 1,6,-1
 70 584 l 1,7,-1
 258 584 l 2,8,9
 302 584 302 584 325 578 c 128,-1,10
 348 572 348 572 371 553 c 0,11,12
 467 470 467 470 467 293 c 0,0,1
373 293 m 0,13,14
 373 417 373 417 326 467 c 1,15,16
 301 492 301 492 266 492 c 2,17,-1
 162 492 l 1,18,-1
 162 94 l 1,19,-1
 254 94 l 2,20,21
 296 94 296 94 319 117 c 0,22,23
 373 171 373 171 373 293 c 0,13,14
EndSplineSet
EndChar
StartChar: E
Encoding: 69 69 36
Width: 787
VWidth: 1754
Flags: W
LayerCount: 2
Fore
SplineSet
740 0 m 1,0,-1
 120 0 l 1,1,-1
 120 1000 l 1,2,-1
 709 1000 l 1,3,-1
 709 843 l 1,4,-1
 277 843 l 1,5,-1
 277 596 l 1,6,-1
 569 596 l 1,7,-1
 569 435 l 1,8,-1
 277 435 l 1,9,-1
 277 161 l 1,10,-1
 740 161 l 1,11,-1
 740 0 l 1,0,-1
EndSplineSet
EndChar
StartChar: F
Encoding: 70 70 37
Width: 448
Flags: W
LayerCount: 2
Fore
SplineSet
432 492 m 1,0,-1
 162 492 l 1,1,-1
 162 348 l 1,2,-1
 332 348 l 1,3,-1
 332 254 l 1,4,-1
 162 254 l 1,5,-1
 162 0 l 1,6,-1
 70 0 l 1,7,-1
 70 584 l 1,8,-1
 432 584 l 1,9,-1
 432 492 l 1,0,-1
EndSplineSet
EndChar
StartChar: G
Encoding: 71 71 38
Width: 512
Flags: W
LayerCount: 2
Fore
SplineSet
455 174 m 2,0,1
 455 95 455 95 402.5 42.5 c 128,-1,2
 350 -10 350 -10 270 -10 c 0,3,4
 204 -10 204 -10 163 15 c 128,-1,5
 122 40 122 40 96 96 c 1,6,7
 57 176 57 176 57 291 c 0,8,9
 57 361 57 361 75 425 c 128,-1,10
 93 489 93 489 123 528 c 1,11,12
 177 594 177 594 272 594 c 0,13,14
 340 594 340 594 383 564 c 128,-1,15
 426 534 426 534 455 465 c 1,16,-1
 367 430 l 1,17,18
 348 468 348 468 327 484 c 128,-1,19
 306 500 306 500 272 500 c 0,20,21
 202 500 202 500 174 428 c 0,22,23
 152 373 152 373 152 291 c 0,24,25
 152 189 152 189 180 131 c 1,26,27
 206 84 206 84 260 84 c 0,28,29
 304 84 304 84 333 109 c 128,-1,30
 362 134 362 134 362 174 c 2,31,-1
 362 199 l 1,32,-1
 256 199 l 1,33,-1
 256 291 l 1,34,-1
 455 291 l 1,35,-1
 455 174 l 2,0,1
EndSplineSet
EndChar
StartChar: H
Encoding: 72 72 39
Width: 536
Flags: W
LayerCount: 2
Fore
SplineSet
467 0 m 1,0,-1
 375 0 l 1,1,-1
 375 254 l 1,2,-1
 162 254 l 1,3,-1
 162 0 l 1,4,-1
 70 0 l 1,5,-1
 70 584 l 1,6,-1
 162 584 l 1,7,-1
 162 348 l 1,8,-1
 375 348 l 1,9,-1
 375 584 l 1,10,-1
 467 584 l 1,11,-1
 467 0 l 1,0,-1
EndSplineSet
EndChar
StartChar: I
Encoding: 73 73 40
Width: 401
VWidth: 1754
Flags: W
LayerCount: 2
Fore
SplineSet
281 0 m 1,0,-1
 120 0 l 1,1,-1
 120 1000 l 1,2,-1
 281 1000 l 1,3,-1
 281 0 l 1,0,-1
EndSplineSet
EndChar
StartChar: J
Encoding: 74 74 41
Width: 789
VWidth: 1754
Flags: W
LayerCount: 2
Fore
SplineSet
669 301 m 2,0,1
 669 159 669 159 578 71 c 128,-1,2
 487 -17 487 -17 340 -17 c 0,3,4
 196 -17 196 -17 90 84 c 0,5,6
 56 118 56 118 30 164 c 1,7,-1
 174 231 l 1,8,9
 243 144 243 144 340 144 c 0,10,11
 421 144 421 144 464.5 193.5 c 128,-1,12
 508 243 508 243 508 334 c 2,13,-1
 508 1000 l 1,14,-1
 669 1000 l 1,15,-1
 669 301 l 2,0,1
EndSplineSet
EndChar
StartChar: K
Encoding: 75 75 42
Width: 867
VWidth: 1754
Flags: W
LayerCount: 2
Fore
SplineSet
817 0 m 1,0,-1
 635 0 l 1,1,-1
 382 473 l 1,2,-1
 277 344 l 1,3,-1
 277 0 l 1,4,-1
 120 0 l 1,5,-1
 120 1000 l 1,6,-1
 277 1000 l 1,7,-1
 277 603 l 1,8,-1
 593 1000 l 1,9,-1
 796 1000 l 1,10,-1
 488 610 l 1,11,-1
 817 0 l 1,0,-1
EndSplineSet
EndChar
StartChar: L
Encoding: 76 76 43
Width: 767
VWidth: 1754
Flags: W
LayerCount: 2
Fore
SplineSet
740 0 m 1,0,-1
 120 0 l 1,1,-1
 120 1000 l 1,2,-1
 277 1000 l 1,3,-1
 277 147 l 1,4,-1
 740 147 l 1,5,-1
 740 0 l 1,0,-1
EndSplineSet
EndChar
StartChar: M
Encoding: 77 77 44
Width: 593
Flags: W
LayerCount: 2
Fore
SplineSet
524 0 m 1,0,-1
 432 0 l 1,1,-1
 432 338 l 1,2,-1
 297 0 l 1,3,-1
 162 338 l 1,4,-1
 162 0 l 1,5,-1
 70 0 l 1,6,-1
 70 584 l 1,7,-1
 162 584 l 1,8,-1
 297 256 l 1,9,-1
 432 584 l 1,10,-1
 524 584 l 1,11,-1
 524 0 l 1,0,-1
EndSplineSet
EndChar
StartChar: N
Encoding: 78 78 45
Width: 920
VWidth: 1754
Flags: W
LayerCount: 2
Fore
SplineSet
800 0 m 1,0,-1
 659 0 l 1,1,-1
 277 677 l 1,2,-1
 277 0 l 1,3,-1
 120 0 l 1,4,-1
 120 1000 l 1,5,-1
 277 1000 l 1,6,-1
 642 361 l 1,7,-1
 642 1000 l 1,8,-1
 800 1000 l 1,9,-1
 800 0 l 1,0,-1
EndSplineSet
EndChar
StartChar: O
Encoding: 79 79 46
Width: 909
VWidth: 1754
Flags: W
LayerCount: 2
Fore
SplineSet
809 498 m 0,0,1
 809 376 809 376 780.5 267 c 128,-1,2
 752 158 752 158 701 94 c 1,3,4
 619 -17 619 -17 458 -17 c 0,5,6
 354 -17 354 -17 284 26 c 128,-1,7
 214 69 214 69 170 161 c 1,8,9
 100 298 100 298 100 498 c 0,10,11
 100 750 100 750 209 904 c 1,12,13
 296 1017 296 1017 464 1017 c 0,14,15
 649 1017 649 1017 742 838 c 1,16,17
 809 700 809 700 809 498 c 0,0,1
651 498 m 0,18,19
 651 678 651 678 591 779 c 0,20,21
 550 851 550 851 461 856 c 0,22,23
 350 861 350 861 300 733 c 0,24,25
 262 639 262 639 262 498 c 0,26,27
 262 315 262 315 321 221 c 1,28,29
 366 144 366 144 458 144 c 0,30,31
 562 144 562 144 612 271 c 0,32,33
 651 371 651 371 651 498 c 0,18,19
EndSplineSet
EndChar
StartChar: P
Encoding: 80 80 47
Width: 827
VWidth: 1754
Flags: W
LayerCount: 2
Fore
SplineSet
800 719 m 0,0,1
 800 640 800 640 755.5 569 c 128,-1,2
 711 498 711 498 646 469 c 0,3,4
 569 435 569 435 462 435 c 2,5,-1
 277 435 l 1,6,-1
 277 0 l 1,7,-1
 120 0 l 1,8,-1
 120 1000 l 1,9,-1
 462 1000 l 2,10,11
 578 1000 578 1000 645.5 967.5 c 128,-1,12
 713 935 713 935 756.5 864.5 c 128,-1,13
 800 794 800 794 800 719 c 0,0,1
639 719 m 0,14,15
 639 788 639 788 579 824 c 1,16,17
 541 843 541 843 485 843 c 2,18,-1
 277 843 l 1,19,-1
 277 596 l 1,20,-1
 485 596 l 2,21,22
 545 596 545 596 579 613 c 0,23,24
 605 625 605 625 622 655.5 c 128,-1,25
 639 686 639 686 639 719 c 0,14,15
EndSplineSet
EndChar
StartChar: Q
Encoding: 81 81 48
Width: 907
VWidth: 1754
Flags: W
LayerCount: 2
Fore
SplineSet
807 502 m 0,0,1
 807 367 807 367 772 250.5 c 128,-1,2
 737 134 737 134 677 70 c 1,3,-1
 713 14 l 1,4,-1
 593 -63 l 1,5,-1
 555 -3 l 1,6,7
 486 -17 486 -17 452 -17 c 0,8,9
 349 -17 349 -17 282.5 26 c 128,-1,10
 216 69 216 69 168 161 c 1,11,12
 98 305 98 305 98 502 c 0,13,14
 98 620 98 620 128.5 729 c 128,-1,15
 159 838 159 838 207 904 c 1,16,17
 294 1017 294 1017 456 1017 c 0,18,19
 651 1017 651 1017 740 838 c 0,20,21
 807 701 807 701 807 502 c 0,0,1
649 502 m 0,22,23
 649 668 649 668 589 779 c 1,24,25
 544 856 544 856 456 856 c 0,26,27
 341 856 341 856 298 733 c 1,28,29
 260 639 260 639 260 502 c 0,30,31
 260 272 260 272 351 182 c 0,32,33
 389 144 389 144 456 144 c 1,34,-1
 375 267 l 1,35,-1
 492 344 l 1,36,-1
 582 211 l 1,37,38
 649 310 649 310 649 502 c 0,22,23
EndSplineSet
EndChar
StartChar: R
Encoding: 82 82 49
Width: 850
VWidth: 1754
Flags: W
LayerCount: 2
Fore
SplineSet
800 0 m 1,0,-1
 629 0 l 1,1,-1
 466 435 l 1,2,-1
 277 435 l 1,3,-1
 277 0 l 1,4,-1
 120 0 l 1,5,-1
 120 1000 l 1,6,-1
 449 1000 l 2,7,8
 562 1000 562 1000 629 968 c 0,9,10
 694 935 694 935 736.5 865 c 128,-1,11
 779 795 779 795 779 719 c 0,12,13
 779 640 779 640 736.5 569 c 128,-1,14
 694 498 694 498 625 466 c 1,15,-1
 800 0 l 1,0,-1
620 719 m 0,16,17
 620 791 620 791 558 824 c 0,18,19
 525 843 525 843 466 843 c 2,20,-1
 277 843 l 1,21,-1
 277 596 l 1,22,-1
 466 596 l 2,23,24
 528 596 528 596 558 613 c 0,25,26
 620 645 620 645 620 719 c 0,16,17
EndSplineSet
EndChar
StartChar: S
Encoding: 83 83 50
Width: 777
VWidth: 1754
Flags: W
LayerCount: 2
Fore
SplineSet
730 288 m 0,0,1
 730 148 730 148 632 60 c 0,2,3
 545 -17 545 -17 415 -17 c 0,4,5
 290 -17 290 -17 195.5 50.5 c 128,-1,6
 101 118 101 118 50 235 c 1,7,-1
 200 291 l 1,8,9
 267 144 267 144 415 144 c 0,10,11
 482 144 482 144 525.5 186 c 128,-1,12
 569 228 569 228 569 291 c 0,13,14
 569 329 569 329 553.5 358 c 128,-1,15
 538 387 538 387 504.5 407.5 c 128,-1,16
 471 428 471 428 443 440 c 128,-1,17
 415 452 415 452 362.5 470 c 128,-1,18
 310 488 310 488 284 498 c 0,19,20
 90 575 90 575 91 747 c 0,21,22
 91 887 91 887 175.5 952 c 128,-1,23
 260 1017 260 1017 404 1017 c 0,24,25
 604 1017 604 1017 687 814 c 1,26,-1
 546 773 l 1,27,28
 543 782 543 782 533.5 796 c 128,-1,29
 524 810 524 810 486.5 834 c 128,-1,30
 449 858 449 858 399 860 c 0,31,32
 334 863 334 863 287 834 c 128,-1,33
 240 805 240 805 245 743 c 0,34,35
 248 693 248 693 299.5 663.5 c 128,-1,36
 351 634 351 634 421.5 614 c 128,-1,37
 492 594 492 594 562 565 c 128,-1,38
 632 536 632 536 681 467 c 128,-1,39
 730 398 730 398 730 288 c 0,0,1
EndSplineSet
EndChar
StartChar: T
Encoding: 84 84 51
Width: 395
Flags: W
LayerCount: 2
Fore
SplineSet
379 502 m 1,0,-1
 244 502 l 1,1,-1
 244 0 l 1,2,-1
 152 0 l 1,3,-1
 152 502 l 1,4,-1
 18 502 l 1,5,-1
 18 584 l 1,6,-1
 379 584 l 1,7,-1
 379 502 l 1,0,-1
EndSplineSet
EndChar
StartChar: U
Encoding: 85 85 52
Width: 920
VWidth: 1754
Flags: W
LayerCount: 2
Fore
SplineSet
800.021 358 m 2,0,1
 800.021 252 800.021 252 754.021 151 c 1,2,3
 715.021 77 715.021 77 632.521 30 c 128,-1,4
 550.021 -17 550.021 -17 459.021 -17 c 128,-1,5
 368.021 -17 368.021 -17 286.021 30 c 128,-1,6
 204.021 77 204.021 77 164.021 151 c 1,7,8
 119.021 249 119.021 249 120.021 358 c 2,9,-1
 120.021 1000 l 1,10,-1
 277.021 1000 l 1,11,-1
 277.021 358 l 2,12,13
 277.021 260 277.021 260 327.021 202 c 128,-1,14
 377.021 144 377.021 144 459.021 144 c 128,-1,15
 541.021 144 541.021 144 591.521 202 c 128,-1,16
 642.021 260 642.021 260 642.021 358 c 2,17,-1
 642.021 1000 l 1,18,-1
 800.021 1000 l 1,19,-1
 800.021 358 l 2,0,1
EndSplineSet
EndChar
StartChar: V
Encoding: 86 86 53
Width: 817
VWidth: 1754
Flags: W
LayerCount: 2
Fore
SplineSet
790 1000 m 1,0,-1
 469 0 l 1,1,-1
 348 0 l 1,2,-1
 31 1000 l 1,3,-1
 197 1000 l 1,4,-1
 411 334 l 1,5,-1
 620 1000 l 1,6,-1
 790 1000 l 1,0,-1
EndSplineSet
EndChar
StartChar: W
Encoding: 87 87 54
Width: 945
VWidth: 1754
Flags: W
LayerCount: 2
Fore
SplineSet
920 1000 m 1,0,-1
 773 0 l 1,1,-1
 632 0 l 1,2,-1
 473 642 l 1,3,-1
 319 0 l 1,4,-1
 178 0 l 1,5,-1
 31 1000 l 1,6,-1
 194 1000 l 1,7,-1
 271 473 l 1,8,-1
 396 1000 l 1,9,-1
 552 1000 l 1,10,-1
 680 473 l 1,11,-1
 757 1000 l 1,12,-1
 920 1000 l 1,0,-1
EndSplineSet
EndChar
StartChar: X
Encoding: 88 88 55
Width: 454
Flags: W
LayerCount: 2
Fore
SplineSet
426 0 m 1,0,-1
 322 0 l 1,1,-1
 227 195 l 1,2,-1
 133 0 l 1,3,-1
 29 0 l 1,4,-1
 174 301 l 1,5,-1
 39 584 l 1,6,-1
 143 584 l 1,7,-1
 227 410 l 1,8,-1
 311 584 l 1,9,-1
 416 584 l 1,10,-1
 279 301 l 1,11,-1
 426 0 l 1,0,-1
EndSplineSet
EndChar
StartChar: Y
Encoding: 89 89 56
Width: 957
VWidth: 1754
Flags: W
LayerCount: 2
Fore
SplineSet
904 1000 m 1,0,-1
 558 435 l 1,1,-1
 558 0 l 1,2,-1
 399 0 l 1,3,-1
 399 435 l 1,4,-1
 50 1000 l 1,5,-1
 238 1000 l 1,6,-1
 478 613 l 1,7,-1
 719 1000 l 1,8,-1
 904 1000 l 1,0,-1
EndSplineSet
EndChar
StartChar: Z
Encoding: 90 90 57
Width: 454
Flags: W
LayerCount: 2
Fore
SplineSet
426 0 m 1,0,-1
 29 0 l 1,1,-1
 29 78 l 1,2,-1
 295 492 l 1,3,-1
 51 492 l 1,4,-1
 51 584 l 1,5,-1
 426 584 l 1,6,-1
 426 528 l 1,7,-1
 156 94 l 1,8,-1
 426 94 l 1,9,-1
 426 0 l 1,0,-1
EndSplineSet
EndChar
StartChar: grave
Encoding: 96 96 124
Width: 212
Flags: W
LayerCount: 2
Fore
SplineSet
141 480 m 1,0,-1
 78 480 l 1,1,-1
 0 584 l 1,2,-1
 97 584 l 1,3,-1
 141 480 l 1,0,-1
EndSplineSet
EndChar
StartChar: a
Encoding: 97 97 58
Width: 413
Flags: W
LayerCount: 2
Fore
SplineSet
362 0 m 1,0,-1
 272 0 l 1,1,-1
 272 12 l 1,2,3
 251 -6 251 -6 188 -6 c 0,4,5
 120 -6 120 -6 74.5 36 c 128,-1,6
 29 78 29 78 29 152 c 0,7,8
 29 195 29 195 53 227.5 c 128,-1,9
 77 260 77 260 112.5 274 c 128,-1,10
 148 288 148 288 189.5 290.5 c 128,-1,11
 231 293 231 293 266 276 c 1,12,13
 266 279 266 279 266 283.5 c 128,-1,14
 266 288 266 288 263 300 c 128,-1,15
 260 312 260 312 254 321.5 c 128,-1,16
 248 331 248 331 234.5 339.5 c 128,-1,17
 221 348 221 348 203 350 c 0,18,19
 164 355 164 355 130.5 336 c 128,-1,20
 97 317 97 317 84 297 c 1,21,-1
 57 387 l 1,22,23
 110 430 110 430 181.5 436.5 c 128,-1,24
 253 443 253 443 307.5 403 c 128,-1,25
 362 363 362 363 362 285 c 2,26,-1
 362 0 l 1,0,-1
268 94 m 1,27,-1
 268 193 l 1,28,29
 251 201 251 201 228.5 206 c 128,-1,30
 206 211 206 211 180.5 211 c 128,-1,31
 155 211 155 211 138 195.5 c 128,-1,32
 121 180 121 180 121 150 c 0,33,34
 121 114 121 114 138.5 95 c 128,-1,35
 156 76 156 76 182 76 c 128,-1,36
 208 76 208 76 230 81 c 128,-1,37
 252 86 252 86 268 94 c 1,27,-1
EndSplineSet
EndChar
StartChar: b
Encoding: 98 98 59
Width: 444
Flags: W
LayerCount: 2
Fore
SplineSet
410 215 m 1,0,1
 410 116 410 116 367 53 c 128,-1,2
 324 -10 324 -10 233 -10 c 0,3,4
 192 -10 192 -10 152 12 c 1,5,-1
 152 0 l 1,6,-1
 57 0 l 1,7,-1
 57 549 l 1,8,-1
 152 594 l 1,9,-1
 152 412 l 1,10,11
 160 420 160 420 183.5 427.5 c 128,-1,12
 207 435 207 435 229 436 c 0,13,14
 269 439 269 439 300.5 428 c 128,-1,15
 332 417 332 417 352 396 c 128,-1,16
 372 375 372 375 385 344.5 c 128,-1,17
 398 314 398 314 403.5 282.5 c 128,-1,18
 409 251 409 251 410 215 c 1,0,1
315 215 m 0,19,20
 317 269 317 269 295.5 309 c 128,-1,21
 274 349 274 349 225 350 c 0,22,23
 180 350 180 350 154 319 c 1,24,-1
 154 104 l 1,25,26
 185 73 185 73 231 76 c 0,27,28
 260 77 260 77 280 100.5 c 128,-1,29
 300 124 300 124 307 152.5 c 128,-1,30
 314 181 314 181 315 215 c 0,19,20
EndSplineSet
EndChar
StartChar: c
Encoding: 99 99 60
Width: 399
Flags: W
LayerCount: 2
Fore
SplineSet
381 133 m 1,0,1
 351 -8 351 -8 213 -8 c 0,2,3
 35 -8 35 -8 35 215 c 0,4,5
 35 255 35 255 42.5 290 c 128,-1,6
 50 325 50 325 68.5 360 c 128,-1,7
 87 395 87 395 124 415.5 c 128,-1,8
 161 436 161 436 213 436 c 0,9,10
 340 436 340 436 375 330 c 1,11,-1
 281 297 l 1,12,13
 266 350 266 350 213 350 c 0,14,15
 180 350 180 350 159.5 323.5 c 128,-1,16
 139 297 139 297 134 270 c 128,-1,17
 129 243 129 243 129 215 c 128,-1,18
 129 187 129 187 134 159.5 c 128,-1,19
 139 132 139 132 159.5 105 c 128,-1,20
 180 78 180 78 213 78 c 0,21,22
 276 78 276 78 287 158 c 1,23,-1
 381 133 l 1,0,1
EndSplineSet
EndChar
StartChar: d
Encoding: 100 100 61
Width: 760
VWidth: 1754
Flags: W
LayerCount: 2
Fore
SplineSet
63 368 m 0,0,1
 60 198 60 198 134.5 90.5 c 128,-1,2
 209 -17 209 -17 365 -17 c 0,3,4
 437 -17 437 -17 505 21 c 1,5,-1
 505 0 l 1,6,-1
 663 0 l 1,7,-1
 663 1017 l 1,8,-1
 505 940 l 1,9,-1
 505 706 l 1,10,11
 493 718 493 718 449.5 730.5 c 128,-1,12
 406 743 406 743 368 747 c 0,13,14
 299 752 299 752 245.5 733 c 128,-1,15
 192 714 192 714 158.5 678 c 128,-1,16
 125 642 125 642 103.5 590 c 128,-1,17
 82 538 82 538 73.5 484 c 128,-1,18
 65 430 65 430 63 368 c 0,0,1
224 368 m 0,19,20
 221 460 221 460 258 529 c 128,-1,21
 295 598 295 598 379 600 c 0,22,23
 453 600 453 600 502 546 c 1,24,-1
 502 178 l 1,25,26
 449 125 449 125 368 130 c 0,27,28
 318 132 318 132 284 172 c 128,-1,29
 250 212 250 212 238 261 c 128,-1,30
 226 310 226 310 224 368 c 0,19,20
EndSplineSet
EndChar
StartChar: e
Encoding: 101 101 62
Width: 693
VWidth: 1754
Flags: W
LayerCount: 2
Fore
SplineSet
653 298 m 1,0,-1
 224 298 l 1,1,2
 238 134 238 134 361 134 c 0,3,4
 411 134 411 134 448.5 160.5 c 128,-1,5
 486 187 486 187 498 235 c 1,6,-1
 629 154 l 1,7,8
 552 -14 552 -14 361 -14 c 0,9,10
 60 -14 60 -14 60 368 c 0,11,12
 60 437 60 437 73 497 c 128,-1,13
 86 557 86 557 116 617 c 128,-1,14
 146 677 146 677 209 712 c 128,-1,15
 272 747 272 747 361 747 c 0,16,17
 421 747 421 747 468.5 731.5 c 128,-1,18
 516 716 516 716 546 689.5 c 128,-1,19
 576 663 576 663 598 627 c 128,-1,20
 620 591 620 591 630.5 550 c 128,-1,21
 641 509 641 509 647.5 465 c 128,-1,22
 654 421 654 421 652.5 379 c 128,-1,23
 651 337 651 337 653 298 c 1,0,-1
495 445 m 1,24,25
 495 514 495 514 468.5 557 c 128,-1,26
 442 600 442 600 361 600 c 0,27,28
 277 600 277 600 249 557 c 128,-1,29
 221 514 221 514 221 445 c 1,30,-1
 495 445 l 1,24,25
EndSplineSet
EndChar
StartChar: f
Encoding: 102 102 63
Width: 419
VWidth: 1754
Flags: W
LayerCount: 2
Fore
SplineSet
399 586 m 1,0,-1
 295 586 l 1,1,-1
 295 0 l 1,2,-1
 134 0 l 1,3,-1
 134 586 l 1,4,-1
 39 586 l 1,5,-1
 39 730 l 1,6,-1
 134 730 l 1,7,-1
 134 856 l 2,8,9
 134 923 134 923 167 970 c 128,-1,10
 200 1017 200 1017 277 1017 c 0,11,12
 316 1017 316 1017 399 1000 c 1,13,-1
 399 863 l 1,14,15
 397 863 397 863 376 868.5 c 128,-1,16
 355 874 355 874 346 874.5 c 128,-1,17
 337 875 337 875 322.5 873.5 c 128,-1,18
 308 872 308 872 301.5 862.5 c 128,-1,19
 295 853 295 853 295 834 c 2,20,-1
 295 730 l 1,21,-1
 399 730 l 1,22,-1
 399 586 l 1,0,-1
EndSplineSet
EndChar
StartChar: g
Encoding: 103 103 64
Width: 763
VWidth: 1754
Flags: W
LayerCount: 2
Fore
SplineSet
365 -17 m 0,0,1
 209 -17 209 -17 134.5 91 c 128,-1,2
 60 199 60 199 63 368 c 0,3,4
 65 430 65 430 73.5 484 c 128,-1,5
 82 538 82 538 103.5 590 c 128,-1,6
 125 642 125 642 158.5 678 c 128,-1,7
 192 714 192 714 246 733 c 128,-1,8
 300 752 300 752 368 747 c 0,9,10
 406 744 406 744 449.5 731 c 128,-1,11
 493 718 493 718 505 706 c 1,12,-1
 505 730 l 1,13,-1
 663 730 l 1,14,-1
 663 94 l 2,15,16
 663 89 663 89 664 49.5 c 128,-1,17
 665 10 665 10 665 -13 c 128,-1,18
 665 -36 665 -36 659 -81.5 c 128,-1,19
 653 -127 653 -127 641 -157 c 128,-1,20
 629 -187 629 -187 604 -226 c 128,-1,21
 579 -265 579 -265 544 -290 c 128,-1,22
 509 -315 509 -315 454 -336.5 c 128,-1,23
 399 -358 399 -358 329 -365 c 1,24,-1
 252 -245 l 1,25,26
 305 -233 305 -233 333 -224.5 c 128,-1,27
 361 -216 361 -216 409 -195.5 c 128,-1,28
 457 -175 457 -175 481 -142.5 c 128,-1,29
 505 -110 505 -110 505 -67 c 2,30,-1
 505 21 l 1,31,32
 442 -17 442 -17 365 -17 c 0,0,1
224 368 m 0,33,34
 226 310 226 310 238 261 c 128,-1,35
 250 212 250 212 284.5 172 c 128,-1,36
 319 132 319 132 368 130 c 0,37,38
 449 125 449 125 502 178 c 1,39,-1
 502 546 l 1,40,41
 449 599 449 599 379 600 c 0,42,43
 295 598 295 598 258 529 c 128,-1,44
 221 460 221 460 224 368 c 0,33,34
EndSplineSet
EndChar
StartChar: h
Encoding: 104 104 65
Width: 777
VWidth: 1754
Flags: W
LayerCount: 2
Fore
SplineSet
687 0 m 1,0,-1
 529 0 l 1,1,-1
 529 485 l 2,2,3
 529 550 529 550 490.5 575 c 128,-1,4
 452 600 452 600 382 600 c 1,5,6
 329 597 329 597 294.5 566.5 c 128,-1,7
 260 536 260 536 260 478 c 2,8,-1
 260 0 l 1,9,-1
 98 0 l 1,10,-1
 98 940 l 1,11,-1
 257 1017 l 1,12,-1
 257 706 l 1,13,14
 317 744 317 744 393 749 c 128,-1,15
 469 754 469 754 533.5 728 c 128,-1,16
 598 702 598 702 642.5 642 c 128,-1,17
 687 582 687 582 687 502 c 2,18,-1
 687 0 l 1,0,-1
EndSplineSet
EndChar
StartChar: i
Encoding: 105 105 66
Width: 212
Flags: W
LayerCount: 2
Fore
SplineSet
156 545 m 128,-1,1
 156 525 156 525 141.5 511.5 c 128,-1,2
 127 498 127 498 106 498 c 0,3,4
 86 498 86 498 71.5 511.5 c 128,-1,5
 57 525 57 525 57 545 c 128,-1,6
 57 565 57 565 71.5 579.5 c 128,-1,7
 86 594 86 594 106 594 c 128,-1,8
 126 594 126 594 141 579.5 c 128,-1,0
 156 565 156 565 156 545 c 128,-1,1
154 0 m 1,9,-1
 61 0 l 1,10,-1
 61 426 l 1,11,-1
 154 426 l 1,12,-1
 154 0 l 1,9,-1
EndSplineSet
EndChar
StartChar: j
Encoding: 106 106 67
Width: 431
VWidth: 1754
Flags: W
LayerCount: 2
Fore
SplineSet
331 933.5 m 128,-1,1
 331 899 331 899 306 876 c 128,-1,2
 281 853 281 853 245 853 c 0,3,4
 211 853 211 853 187.5 876 c 128,-1,5
 164 899 164 899 164 933.5 c 128,-1,6
 164 968 164 968 187.5 992.5 c 128,-1,7
 211 1017 211 1017 245 1017 c 128,-1,8
 279 1017 279 1017 305 992.5 c 128,-1,0
 331 968 331 968 331 933.5 c 128,-1,1
325 -24 m 2,9,10
 325 -211 325 -211 204 -281 c 1,11,12
 91 -351 91 -351 0 -361 c 1,13,-1
 0 -211 l 1,14,15
 65 -192 65 -192 104 -168 c 1,16,17
 164 -127 164 -127 164 -53 c 2,18,-1
 164 730 l 1,19,-1
 325 730 l 1,20,-1
 325 -24 l 2,9,10
EndSplineSet
EndChar
StartChar: k
Encoding: 107 107 68
Width: 760
VWidth: 1754
Flags: W
LayerCount: 2
Fore
SplineSet
743 0 m 1,0,-1
 562 0 l 1,1,-1
 351 411 l 1,2,-1
 260 315 l 1,3,-1
 260 0 l 1,4,-1
 98 0 l 1,5,-1
 98 940 l 1,6,-1
 260 1017 l 1,7,-1
 260 519 l 1,8,-1
 459 730 l 1,9,-1
 663 730 l 1,10,-1
 469 529 l 1,11,-1
 743 0 l 1,0,-1
EndSplineSet
EndChar
StartChar: l
Encoding: 108 108 69
Width: 356
VWidth: 1754
Flags: W
LayerCount: 2
Fore
SplineSet
260 0 m 1,0,-1
 98 0 l 1,1,-1
 98 940 l 1,2,-1
 260 1017 l 1,3,-1
 260 0 l 1,0,-1
EndSplineSet
EndChar
StartChar: m
Encoding: 109 109 70
Width: 1180
VWidth: 1754
Flags: W
LayerCount: 2
Fore
SplineSet
1090 0 m 1,0,-1
 932 0 l 1,1,-1
 932 473 l 2,2,3
 932 600 932 600 798 600 c 0,4,5
 748 600 748 600 715 566.5 c 128,-1,6
 682 533 682 533 682 473 c 2,7,-1
 682 0 l 1,8,-1
 514 0 l 1,9,-1
 514 473 l 2,10,11
 514 542 514 542 480 571 c 128,-1,12
 446 600 446 600 377 600 c 1,13,14
 266 593 266 593 266 473 c 2,15,-1
 266 0 l 1,16,-1
 100 0 l 1,17,-1
 100 730 l 1,18,-1
 262 730 l 1,19,-1
 262 699 l 1,20,21
 341 759 341 759 447.5 748.5 c 128,-1,22
 554 738 554 738 619 663 c 1,23,24
 679 742 679 742 792.5 750.5 c 128,-1,25
 906 759 906 759 998 688.5 c 128,-1,26
 1090 618 1090 618 1090 495 c 2,27,-1
 1090 0 l 1,0,-1
EndSplineSet
EndChar
StartChar: n
Encoding: 110 110 71
Width: 779
VWidth: 1754
Flags: W
LayerCount: 2
Fore
SplineSet
689 0 m 1,0,-1
 531 0 l 1,1,-1
 531 485 l 2,2,3
 531 550 531 550 492.5 575 c 128,-1,4
 454 600 454 600 384 600 c 1,5,6
 331 597 331 597 296.5 566.5 c 128,-1,7
 262 536 262 536 262 478 c 2,8,-1
 262 0 l 1,9,-1
 100 0 l 1,10,-1
 100 730 l 1,11,-1
 259 730 l 1,12,-1
 259 706 l 1,13,14
 319 744 319 744 395 749 c 128,-1,15
 471 754 471 754 535.5 728 c 128,-1,16
 600 702 600 702 644.5 642 c 128,-1,17
 689 582 689 582 689 502 c 2,18,-1
 689 0 l 1,0,-1
EndSplineSet
EndChar
StartChar: o
Encoding: 111 111 72
Width: 423
Flags: W
LayerCount: 2
Fore
SplineSet
389 215 m 128,-1,1
 389 172 389 172 381.5 136 c 128,-1,2
 374 100 374 100 356 66 c 128,-1,3
 338 32 338 32 301.5 12 c 128,-1,4
 265 -8 265 -8 213 -8 c 0,5,6
 35 -8 35 -8 35 215 c 0,7,8
 35 255 35 255 42.5 290 c 128,-1,9
 50 325 50 325 68.5 360 c 128,-1,10
 87 395 87 395 124 415.5 c 128,-1,11
 161 436 161 436 213 436 c 128,-1,12
 265 436 265 436 301.5 416.5 c 128,-1,13
 338 397 338 397 356 363 c 128,-1,14
 374 329 374 329 381.5 293.5 c 128,-1,0
 389 258 389 258 389 215 c 128,-1,1
295 215 m 0,15,16
 295 234 295 234 291.5 254 c 128,-1,17
 288 274 288 274 280.5 297.5 c 128,-1,18
 273 321 273 321 255.5 335.5 c 128,-1,19
 238 350 238 350 213 350 c 0,20,21
 180 350 180 350 159.5 323 c 128,-1,22
 139 296 139 296 134 268.5 c 128,-1,23
 129 241 129 241 129 213 c 128,-1,24
 129 185 129 185 134 157.5 c 128,-1,25
 139 130 139 130 159.5 103 c 128,-1,26
 180 76 180 76 213 76 c 128,-1,27
 246 76 246 76 266 103.5 c 128,-1,28
 286 131 286 131 290.5 158.5 c 128,-1,29
 295 186 295 186 295 215 c 0,15,16
EndSplineSet
EndChar
StartChar: p
Encoding: 112 112 73
Width: 444
Flags: W
LayerCount: 2
Fore
SplineSet
410 215 m 1,0,1
 410 116 410 116 366.5 53 c 128,-1,2
 323 -10 323 -10 233 -10 c 0,3,4
 192 -10 192 -10 152 12 c 1,5,-1
 152 -123 l 1,6,-1
 57 -164 l 1,7,-1
 57 426 l 1,8,-1
 152 426 l 1,9,-1
 152 412 l 1,10,11
 160 420 160 420 183.5 427.5 c 128,-1,12
 207 435 207 435 229 436 c 0,13,14
 269 439 269 439 300.5 428 c 128,-1,15
 332 417 332 417 352 396 c 128,-1,16
 372 375 372 375 385 344.5 c 128,-1,17
 398 314 398 314 403.5 282.5 c 128,-1,18
 409 251 409 251 410 215 c 1,0,1
315 215 m 0,19,20
 317 269 317 269 295.5 309 c 128,-1,21
 274 349 274 349 225 350 c 0,22,23
 180 350 180 350 154 319 c 1,24,-1
 154 104 l 1,25,26
 185 73 185 73 231 76 c 0,27,28
 260 77 260 77 280 100.5 c 128,-1,29
 300 124 300 124 307 152.5 c 128,-1,30
 314 181 314 181 315 215 c 0,19,20
EndSplineSet
EndChar
StartChar: q
Encoding: 113 113 74
Width: 760
VWidth: 1754
Flags: W
LayerCount: 2
Fore
SplineSet
60.1162 368 m 0,0,1
 57.1162 198 57.1162 198 131.616 90.5 c 128,-1,2
 206.116 -17 206.116 -17 362.116 -17 c 0,3,4
 434.116 -17 434.116 -17 502.116 21 c 1,5,-1
 502.116 -281 l 1,6,-1
 660.116 -211 l 1,7,-1
 660.116 730 l 1,8,-1
 502.116 730 l 1,9,-1
 502.116 706 l 1,10,11
 490.116 718 490.116 718 446.616 730.5 c 128,-1,12
 403.116 743 403.116 743 365.116 747 c 0,13,14
 296.116 752 296.116 752 242.616 733 c 128,-1,15
 189.116 714 189.116 714 155.616 678 c 128,-1,16
 122.116 642 122.116 642 100.616 590 c 128,-1,17
 79.1162 538 79.1162 538 70.6162 484 c 128,-1,18
 62.1162 430 62.1162 430 60.1162 368 c 0,0,1
221.116 368 m 0,19,20
 218.116 460 218.116 460 255.116 529 c 128,-1,21
 292.116 598 292.116 598 376.116 600 c 0,22,23
 450.116 600 450.116 600 499.116 546 c 1,24,-1
 499.116 178 l 1,25,26
 446.116 125 446.116 125 365.116 130 c 0,27,28
 315.116 132 315.116 132 281.116 172 c 128,-1,29
 247.116 212 247.116 212 235.116 261 c 128,-1,30
 223.116 310 223.116 310 221.116 368 c 0,19,20
EndSplineSet
EndChar
StartChar: r
Encoding: 114 114 75
Width: 290
Flags: W
LayerCount: 2
Fore
SplineSet
279 408 m 1,0,-1
 266 326 l 1,1,2
 235 350 235 350 211 350 c 0,3,4
 174 350 174 350 163 330.5 c 128,-1,5
 152 311 152 311 152 266 c 2,6,-1
 152 0 l 1,7,-1
 57 0 l 1,8,-1
 57 426 l 1,9,-1
 152 426 l 1,10,-1
 152 406 l 1,11,12
 180 430 180 430 194 434 c 0,13,14
 204 436 204 436 217 436 c 0,15,16
 254 436 254 436 279 408 c 1,0,-1
EndSplineSet
EndChar
StartChar: s
Encoding: 115 115 76
Width: 313
Flags: W
LayerCount: 2
Fore
SplineSet
296 111 m 0,0,1
 293 61 293 61 253.5 26.5 c 128,-1,2
 214 -8 214 -8 148 -8 c 0,3,4
 68 -8 68 -8 24 59 c 1,5,-1
 89 115 l 1,6,7
 125 67 125 67 163 78 c 0,8,9
 182 83 182 83 190 95.5 c 128,-1,10
 198 108 198 108 194 125 c 128,-1,11
 190 142 190 142 175 158 c 0,12,13
 155 181 155 181 116 208.5 c 128,-1,14
 77 236 77 236 53 260 c 128,-1,15
 29 284 29 284 26 313 c 1,16,17
 23 357 23 357 46 389.5 c 128,-1,18
 69 422 69 422 114 432 c 0,19,20
 205 454 205 454 273 373 c 1,21,-1
 208 319 l 1,22,23
 206 321 206 321 203 324.5 c 128,-1,24
 200 328 200 328 190.5 335.5 c 128,-1,25
 181 343 181 343 172 347.5 c 128,-1,26
 163 352 163 352 152 351.5 c 128,-1,27
 141 351 141 351 132 342 c 1,28,29
 118 324 118 324 130 311 c 128,-1,30
 142 298 142 298 170.5 276 c 128,-1,31
 199 254 199 254 228 233 c 128,-1,32
 257 212 257 212 278 179 c 128,-1,33
 299 146 299 146 296 111 c 0,0,1
EndSplineSet
EndChar
StartChar: t
Encoding: 116 116 77
Width: 416
VWidth: 1754
Flags: W
LayerCount: 2
Fore
SplineSet
408 164 m 1,0,-1
 385 17 l 1,1,2
 316 -14 316 -14 267 -14 c 1,3,4
 186 -19 186 -19 151 34 c 128,-1,5
 116 87 116 87 116 175 c 2,6,-1
 116 582 l 1,7,-1
 10 582 l 1,8,-1
 10 730 l 1,9,-1
 116 730 l 1,10,-1
 116 940 l 1,11,-1
 271 1017 l 1,12,-1
 271 730 l 1,13,-1
 396 730 l 1,14,-1
 396 586 l 1,15,-1
 271 586 l 1,16,-1
 271 200 l 2,17,18
 271 159 271 159 280 144.5 c 128,-1,19
 289 130 289 130 322 130 c 0,20,21
 363 130 363 130 408 164 c 1,0,-1
EndSplineSet
EndChar
StartChar: u
Encoding: 117 117 78
Width: 454
Flags: W
LayerCount: 2
Fore
SplineSet
395 0 m 1,0,-1
 305 0 l 1,1,-1
 305 14 l 1,2,3
 263 -10 263 -10 218 -13 c 128,-1,4
 173 -16 173 -16 136.5 -0.5 c 128,-1,5
 100 15 100 15 76.5 50 c 128,-1,6
 53 85 53 85 53 133 c 2,7,-1
 53 426 l 1,8,-1
 145 426 l 1,9,-1
 145 143 l 2,10,11
 145 105 145 105 167.5 90.5 c 128,-1,12
 190 76 190 76 231 76 c 1,13,14
 303 80 303 80 303 143 c 2,15,-1
 303 426 l 1,16,-1
 395 426 l 1,17,-1
 395 0 l 1,0,-1
EndSplineSet
EndChar
StartChar: v
Encoding: 118 118 79
Width: 745
VWidth: 1754
Flags: W
LayerCount: 2
Fore
SplineSet
725 730 m 1,0,-1
 441 0 l 1,1,-1
 300 0 l 1,2,-1
 20 730 l 1,3,-1
 189 730 l 1,4,-1
 371 238 l 1,5,-1
 545 730 l 1,6,-1
 725 730 l 1,0,-1
EndSplineSet
EndChar
StartChar: w
Encoding: 119 119 80
Width: 681
Flags: W
LayerCount: 2
Fore
SplineSet
670 426 m 1,0,-1
 553 0 l 1,1,-1
 449 0 l 1,2,-1
 340 293 l 1,3,-1
 233 0 l 1,4,-1
 131 0 l 1,5,-1
 12 426 l 1,6,-1
 111 426 l 1,7,-1
 186 141 l 1,8,-1
 289 426 l 1,9,-1
 395 426 l 1,10,-1
 492 139 l 1,11,-1
 571 426 l 1,12,-1
 670 426 l 1,0,-1
EndSplineSet
EndChar
StartChar: x
Encoding: 120 120 81
Width: 454
Flags: W
LayerCount: 2
Fore
SplineSet
455 0 m 1,0,-1
 340 0 l 1,1,-1
 227 158 l 1,2,-1
 113 0 l 1,3,-1
 0 0 l 1,4,-1
 172 236 l 1,5,-1
 33 426 l 1,6,-1
 147 426 l 1,7,-1
 227 315 l 1,8,-1
 305 426 l 1,9,-1
 418 426 l 1,10,-1
 283 238 l 1,11,-1
 455 0 l 1,0,-1
EndSplineSet
EndChar
StartChar: y
Encoding: 121 121 82
Width: 783
VWidth: 1754
Flags: W
LayerCount: 2
Fore
SplineSet
763 730 m 1,0,-1
 367 -281 l 1,1,-1
 193 -281 l 1,2,-1
 300 0 l 1,3,-1
 20 730 l 1,4,-1
 193 730 l 1,5,-1
 391 218 l 1,6,-1
 585 730 l 1,7,-1
 763 730 l 1,0,-1
EndSplineSet
EndChar
StartChar: z
Encoding: 122 122 83
Width: 562
VWidth: 1754
Flags: W
LayerCount: 2
Fore
SplineSet
532 586 m 1,0,-1
 230 144 l 1,1,-1
 528 144 l 1,2,-1
 528 0 l 1,3,-1
 30 0 l 1,4,-1
 30 127 l 1,5,-1
 347 586 l 1,6,-1
 62 586 l 1,7,-1
 62 730 l 1,8,-1
 532 730 l 1,9,-1
 532 586 l 1,0,-1
EndSplineSet
EndChar
StartChar: cent
Encoding: 162 162 84
Width: 456
Flags: W
LayerCount: 2
Fore
SplineSet
416 143 m 1,0,1
 369 47 369 47 291 41 c 1,2,-1
 291 -39 l 1,3,-1
 201 -39 l 1,4,-1
 201 43 l 1,5,6
 153 50 153 50 119 93 c 128,-1,7
 85 136 85 136 71 186.5 c 128,-1,8
 57 237 57 237 57 285 c 0,9,10
 57 339 57 339 70.5 388 c 128,-1,11
 84 437 84 437 118 477.5 c 128,-1,12
 152 518 152 518 201 526 c 1,13,-1
 201 594 l 1,14,-1
 291 594 l 1,15,-1
 291 526 l 1,16,17
 333 520 333 520 361.5 498.5 c 128,-1,18
 390 477 390 477 416 432 c 1,19,-1
 338 401 l 1,20,21
 317 430 317 430 300 440.5 c 128,-1,22
 283 451 283 451 246 451 c 0,23,24
 195 451 195 451 169 403 c 128,-1,25
 143 355 143 355 143 285 c 128,-1,26
 143 215 143 215 171 164 c 128,-1,27
 199 113 199 113 246 113 c 0,28,29
 285 113 285 113 303 127 c 128,-1,30
 321 141 321 141 336 170 c 1,31,-1
 416 143 l 1,0,1
EndSplineSet
EndChar
StartChar: dieresis
Encoding: 168 168 125
Width: 620
VWidth: 1754
Flags: W
LayerCount: 2
Fore
SplineSet
267 933.5 m 128,-1,1
 267 899 267 899 242.5 876 c 128,-1,2
 218 853 218 853 182 853 c 0,3,4
 148 853 148 853 123 876 c 128,-1,5
 98 899 98 899 98 933.5 c 128,-1,6
 98 968 98 968 122.5 992.5 c 128,-1,7
 147 1017 147 1017 181.5 1017 c 128,-1,8
 216 1017 216 1017 241.5 992.5 c 128,-1,0
 267 968 267 968 267 933.5 c 128,-1,1
522 933.5 m 128,-1,10
 522 899 522 899 497.5 876 c 128,-1,11
 473 853 473 853 437 853 c 0,12,13
 403 853 403 853 378 876 c 128,-1,14
 353 899 353 899 353 933.5 c 128,-1,15
 353 968 353 968 378 992.5 c 128,-1,16
 403 1017 403 1017 437 1017 c 128,-1,17
 471 1017 471 1017 496.5 992.5 c 128,-1,9
 522 968 522 968 522 933.5 c 128,-1,10
EndSplineSet
EndChar
StartChar: uni00B2
Encoding: 178 178 87
AltUni2: 002072.ffffffff.0
Width: 584
VWidth: 1754
Flags: W
LayerCount: 2
Fore
SplineSet
519 334 m 1,0,-1
 65 334 l 1,1,2
 68 449 68 449 122 538 c 1,3,4
 160 607 160 607 238 666 c 1,5,6
 255 676 255 676 269 687 c 1,7,-1
 303 706 l 1,8,-1
 337 725 l 1,9,-1
 370 743 l 2,10,11
 413 769 413 769 413 815 c 0,12,13
 413 853 413 853 377 878.5 c 128,-1,14
 341 904 341 904 293 904 c 0,15,16
 189 904 189 904 171 812 c 1,17,-1
 65 834 l 1,18,19
 82 916 82 916 143 964 c 128,-1,20
 204 1012 204 1012 293 1012 c 0,21,22
 387 1012 387 1012 453 954 c 128,-1,23
 519 896 519 896 519 814 c 0,24,25
 519 733 519 733 450 671 c 0,26,27
 433 657 433 657 423 653 c 2,28,-1
 391 630 l 1,29,-1
 355 613 l 1,30,-1
 324 593 l 1,31,32
 276 566 276 566 246 531.5 c 128,-1,33
 216 497 216 497 192 442 c 1,34,-1
 519 442 l 1,35,-1
 519 334 l 1,0,-1
EndSplineSet
EndChar
StartChar: uni00B3
Encoding: 179 179 88
AltUni2: 002073.ffffffff.0
Width: 556
VWidth: 1754
Flags: W
LayerCount: 2
Fore
SplineSet
504 555 m 0,0,1
 504 452 504 452 440.5 387 c 128,-1,2
 377 322 377 322 276 322 c 0,3,4
 195 322 195 322 135 370 c 128,-1,5
 75 418 75 418 53 500 c 1,6,-1
 156 531 l 1,7,8
 182 430 182 430 281 430 c 0,9,10
 332 430 332 430 365.5 463.5 c 128,-1,11
 399 497 399 497 399 546 c 0,12,13
 399 604 399 604 361 630 c 0,14,15
 349 639 349 639 340.5 640.5 c 128,-1,16
 332 642 332 642 295 644 c 1,17,-1
 283 644 l 1,18,-1
 283 754 l 1,19,-1
 283 750 l 1,20,-1
 284 750 l 1,21,-1
 288 750 l 1,22,-1
 308 750 l 2,23,24
 373 750 373 750 373 815 c 0,25,26
 373 854 373 854 346 879 c 128,-1,27
 319 904 319 904 277 904 c 0,28,29
 212 904 212 904 178 839 c 1,30,-1
 79 877 l 1,31,32
 106 940 106 940 158.5 976 c 128,-1,33
 211 1012 211 1012 276 1012 c 0,34,35
 360 1012 360 1012 420 953 c 128,-1,36
 480 894 480 894 480 808 c 0,37,38
 480 753 480 753 442 699 c 1,39,40
 478 665 478 665 491 634 c 128,-1,41
 504 603 504 603 504 555 c 0,0,1
EndSplineSet
EndChar
StartChar: acute
Encoding: 180 180 126
Width: 363
VWidth: 1754
Flags: W
LayerCount: 2
Fore
SplineSet
197 1000 m 1,0,-1
 363 1000 l 1,1,-1
 230 822 l 1,2,-1
 122 822 l 1,3,-1
 197 1000 l 1,0,-1
EndSplineSet
EndChar
StartChar: cedilla
Encoding: 184 184 181
Width: 493
VWidth: 1754
Flags: W
LayerCount: 2
Fore
SplineSet
202 10 m 1,0,-1
 269 10 l 1,1,-1
 255 -39 l 1,2,3
 327 -8 327 -8 358 -67 c 0,4,5
 391 -130 391 -130 337 -188 c 0,6,7
 313 -215 313 -215 260 -216 c 0,8,9
 179 -214 179 -214 103 -173 c 1,10,-1
 127 -116 l 1,11,12
 177 -147 177 -147 233 -146 c 0,13,14
 272 -144 272 -144 283 -127 c 0,15,16
 292 -113 292 -113 277 -96 c 0,17,18
 260 -74 260 -74 219 -104 c 1,19,-1
 178 -74 l 1,20,-1
 202 10 l 1,0,-1
EndSplineSet
EndChar
StartChar: uni00B9
Encoding: 185 185 86
AltUni2: 002071.ffffffff.0
Width: 299
VWidth: 1754
Flags: W
LayerCount: 2
Fore
SplineSet
235 334 m 1,0,-1
 127 334 l 1,1,-1
 127 874 l 1,2,-1
 65 874 l 1,3,-1
 65 959 l 1,4,-1
 72 959 l 2,5,6
 120 959 120 959 149 1000 c 1,7,-1
 235 1000 l 1,8,-1
 235 334 l 1,0,-1
EndSplineSet
EndChar
StartChar: Ccedilla
Encoding: 199 199 132
Width: 512
Flags: W
LayerCount: 2
Fore
SplineSet
232 -6 m 1,0,1
 142 11 142 11 100 94 c 1,2,3
 57 175 57 175 57 293 c 0,4,5
 57 363 57 363 74.5 426.5 c 128,-1,6
 92 490 92 490 123 528 c 0,7,8
 177 594 177 594 272 594 c 0,9,10
 338 594 338 594 382 565.5 c 128,-1,11
 426 537 426 537 455 475 c 1,12,-1
 369 438 l 1,13,14
 344 475 344 475 324.5 487.5 c 128,-1,15
 305 500 305 500 272 500 c 0,16,17
 202 500 202 500 174 428 c 0,18,19
 152 373 152 373 152 293 c 0,20,21
 152 187 152 187 188 129 c 0,22,23
 217 84 217 84 276 84 c 0,24,25
 334 84 334 84 367 152 c 1,26,-1
 455 119 l 1,27,28
 402 -10 402 -10 279 -10 c 2,29,-1
 270 -10 l 1,30,-1
 267 -23 l 1,31,32
 309 -5 309 -5 327 -39 c 0,33,34
 346 -76 346 -76 315 -110 c 0,35,36
 301 -126 301 -126 270 -126 c 0,37,38
 223 -125 223 -125 178 -101 c 1,39,-1
 192 -68 l 1,40,41
 221 -86 221 -86 254 -85 c 0,42,43
 277 -84 277 -84 283 -74 c 0,44,45
 288 -66 288 -66 280 -56 c 0,46,47
 270 -43 270 -43 246 -61 c 1,48,-1
 221 -43 l 1,49,-1
 232 -6 l 1,0,1
EndSplineSet
EndChar
StartChar: ccedilla
Encoding: 231 231 157
Width: 399
Flags: W
LayerCount: 2
Fore
SplineSet
183 -6 m 1,0,1
 35 11 35 11 35 215 c 0,2,3
 35 255 35 255 42.5 290 c 128,-1,4
 50 325 50 325 68.5 360 c 128,-1,5
 87 395 87 395 124 415.5 c 128,-1,6
 161 436 161 436 213 436 c 0,7,8
 340 436 340 436 375 330 c 1,9,-1
 281 297 l 1,10,11
 266 350 266 350 213 350 c 0,12,13
 180 350 180 350 159.5 323.5 c 128,-1,14
 139 297 139 297 134 270 c 128,-1,15
 129 243 129 243 129 215 c 128,-1,16
 129 187 129 187 134 159.5 c 128,-1,17
 139 132 139 132 159.5 105 c 128,-1,18
 180 78 180 78 213 78 c 0,19,20
 276 78 276 78 287 158 c 1,21,-1
 381 133 l 1,22,23
 352 -3 352 -3 223 -8 c 1,24,-1
 219 -23 l 1,25,26
 261 -5 261 -5 279 -39 c 0,27,28
 298 -76 298 -76 267 -110 c 0,29,30
 253 -126 253 -126 222 -126 c 0,31,32
 175 -125 175 -125 130 -101 c 1,33,-1
 144 -68 l 1,34,35
 173 -86 173 -86 206 -85 c 0,36,37
 229 -84 229 -84 235 -74 c 0,38,39
 240 -66 240 -66 232 -56 c 0,40,41
 222 -43 222 -43 198 -61 c 1,42,-1
 173 -43 l 1,43,-1
 183 -6 l 1,0,1
EndSplineSet
EndChar
StartChar: dotlessi
Encoding: 305 305 178
Width: 363
VWidth: 1754
Flags: W
LayerCount: 2
Fore
SplineSet
264 0 m 1,0,-1
 104 0 l 1,1,-1
 104 730 l 1,2,-1
 264 730 l 1,3,-1
 264 0 l 1,0,-1
EndSplineSet
EndChar
StartChar: circumflex
Encoding: 710 710 179
Width: 327
Flags: W
LayerCount: 2
Fore
SplineSet
212 584 m 1,0,-1
 276 480 l 1,1,-1
 213 480 l 1,2,-1
 164 519 l 1,3,-1
 114 480 l 1,4,-1
 51 480 l 1,5,-1
 115 584 l 1,6,-1
 212 584 l 1,0,-1
EndSplineSet
EndChar
StartChar: tilde
Encoding: 732 732 180
Width: 391
Flags: W
LayerCount: 2
Fore
SplineSet
62 494 m 1,0,1
 62 546 62 546 88 576 c 1,2,3
 111 601 111 601 143 601 c 0,4,5
 165 601 165 601 203 573 c 1,6,7
 221 555 221 555 232 555 c 0,8,9
 251 555 251 555 254 600 c 1,10,-1
 309 600 l 1,11,12
 309 554 309 554 288 525 c 0,13,14
 265 492 265 492 225 492 c 0,15,16
 190 492 190 492 169 521 c 1,17,18
 148 539 148 539 140 539 c 0,19,20
 119 539 119 539 117 494 c 1,21,-1
 62 494 l 1,0,1
EndSplineSet
EndChar
StartChar: fraction
Encoding: 8260 8260 105
Width: 685
VWidth: 1754
Flags: W
LayerCount: 2
Fore
SplineSet
685 1002 m 1,0,-1
 108 0 l 1,1,-1
 0 0 l 1,2,-1
 577 1002 l 1,3,-1
 685 1002 l 1,0,-1
EndSplineSet
EndChar
StartChar: uni2070
Encoding: 8304 8304 85
Width: 604
VWidth: 1754
Flags: W
LayerCount: 2
Fore
SplineSet
538 666 m 0,0,1
 538 585 538 585 519 511.5 c 128,-1,2
 500 438 500 438 466 397 c 1,3,4
 411 322 411 322 303 322 c 0,5,6
 234 322 234 322 188 351 c 128,-1,7
 142 380 142 380 111 442 c 0,8,9
 65 533 65 533 65 666 c 0,10,11
 65 834 65 834 139 937 c 1,12,13
 197 1012 197 1012 308 1012 c 0,14,15
 431 1012 431 1012 493 892 c 1,16,17
 538 801 538 801 538 666 c 0,0,1
433 666 m 0,18,19
 433 786 433 786 392 853 c 1,20,21
 365 901 365 901 307 904 c 0,22,23
 232 907 232 907 199 822 c 1,24,25
 173 760 173 760 173 666 c 0,26,27
 173 544 173 544 212 481 c 1,28,29
 241 430 241 430 303 430 c 0,30,31
 373 430 373 430 406 514 c 0,32,33
 433 582 433 582 433 666 c 0,18,19
EndSplineSet
EndChar
StartChar: uni2074
Encoding: 8308 8308 89
Width: 345
Flags: W
LayerCount: 2
Fore
SplineSet
299 292 m 1,0,-1
 262 292 l 1,1,-1
 262 195 l 1,2,-1
 201 195 l 1,3,-1
 201 292 l 1,4,-1
 8 292 l 1,5,-1
 8 329 l 1,6,-1
 201 584 l 1,7,-1
 262 584 l 1,8,-1
 262 348 l 1,9,-1
 299 348 l 1,10,-1
 299 292 l 1,0,-1
201 348 m 1,11,-1
 201 494 l 1,12,-1
 90 348 l 1,13,-1
 201 348 l 1,11,-1
EndSplineSet
EndChar
StartChar: uni2075
Encoding: 8309 8309 90
Width: 341
Flags: W
LayerCount: 2
Fore
SplineSet
303 338 m 0,0,1
 303 274 303 274 255 231 c 128,-1,2
 207 188 207 188 134 188 c 0,3,4
 83 188 83 188 38 210 c 1,5,-1
 68 264 l 1,6,7
 96 251 96 251 142 251 c 0,8,9
 184 251 184 251 212.5 275.5 c 128,-1,10
 241 300 241 300 241 338 c 0,11,12
 241 367 241 367 221 386.5 c 128,-1,13
 201 406 201 406 172 406 c 0,14,15
 151 406 151 406 139 398 c 128,-1,16
 127 390 127 390 109 366 c 1,17,-1
 48 384 l 1,18,-1
 57 584 l 1,19,-1
 281 584 l 1,20,-1
 281 523 l 1,21,-1
 117 523 l 1,22,-1
 113 458 l 1,23,24
 154 470 154 470 173 470 c 0,25,26
 226 470 226 470 264.5 431 c 128,-1,27
 303 392 303 392 303 338 c 0,0,1
EndSplineSet
EndChar
StartChar: uni2076
Encoding: 8310 8310 91
Width: 584
VWidth: 1754
Flags: W
LayerCount: 2
Fore
SplineSet
519 526 m 0,0,1
 519 440 519 440 454 381 c 128,-1,2
 389 322 389 322 293 322 c 256,3,4
 197 322 197 322 131 383.5 c 128,-1,5
 65 445 65 445 65 534 c 0,6,7
 65 673 65 673 136 804 c 128,-1,8
 207 935 207 935 324 1012 c 1,9,-1
 377 923 l 1,10,11
 317 877 317 877 280 831.5 c 128,-1,12
 243 786 243 786 212 723 c 1,13,14
 250 730 250 730 293 730 c 0,15,16
 385 730 385 730 452 670 c 128,-1,17
 519 610 519 610 519 526 c 0,0,1
413 528 m 256,18,19
 413 567 413 567 378 595 c 128,-1,20
 343 623 343 623 293 623 c 256,21,22
 243 623 243 623 208 595 c 128,-1,23
 173 567 173 567 173 528 c 256,24,25
 173 489 173 489 208 459.5 c 128,-1,26
 243 430 243 430 292 430 c 128,-1,27
 341 430 341 430 377 459.5 c 128,-1,28
 413 489 413 489 413 528 c 256,18,19
EndSplineSet
EndChar
StartChar: uni2077
Encoding: 8311 8311 92
Width: 542
VWidth: 1754
Flags: W
LayerCount: 2
Fore
SplineSet
497 896 m 1,0,1
 490 886 490 886 478 871 c 128,-1,2
 466 856 466 856 457.5 844 c 0,3,4
 448 832 448 832 438 815 c 0,5,6
 346 657 346 657 315 497 c 1,7,8
 301 415 301 415 301 334 c 1,9,-1
 194 334 l 1,10,11
 197 558 197 558 289 757 c 1,12,13
 315 817 315 817 363 896 c 1,14,-1
 46 896 l 1,15,-1
 46 1000 l 1,16,-1
 497 1000 l 1,17,-1
 497 896 l 1,0,1
EndSplineSet
EndChar
StartChar: uni2078
Encoding: 8312 8312 93
Width: 341
Flags: W
LayerCount: 2
Fore
SplineSet
303 319 m 0,0,1
 303 266 303 266 263.5 227 c 128,-1,2
 224 188 224 188 170.5 188 c 128,-1,3
 117 188 117 188 77.5 227 c 128,-1,4
 38 266 38 266 38 319 c 0,5,6
 38 373 38 373 83 410 c 1,7,8
 55 440 55 440 55 480 c 0,9,10
 55 525 55 525 89 558 c 128,-1,11
 123 591 123 591 170.5 591 c 128,-1,12
 218 591 218 591 253 558 c 128,-1,13
 288 525 288 525 288 480 c 0,14,15
 288 442 288 442 258 410 c 1,16,17
 303 374 303 374 303 319 c 0,0,1
225 482 m 0,18,19
 225 501 225 501 209 514.5 c 128,-1,20
 193 528 193 528 170.5 528 c 128,-1,21
 148 528 148 528 132 514.5 c 128,-1,22
 116 501 116 501 116 482 c 0,23,24
 116 464 116 464 132 452 c 128,-1,25
 148 440 148 440 170.5 440 c 128,-1,26
 193 440 193 440 209 452 c 128,-1,27
 225 464 225 464 225 482 c 0,18,19
241 318 m 0,28,29
 241 342 241 342 220 359 c 128,-1,30
 199 376 199 376 170.5 376 c 128,-1,31
 142 376 142 376 121.5 359 c 128,-1,32
 101 342 101 342 101 318 c 0,33,34
 101 290 101 290 121.5 270.5 c 128,-1,35
 142 251 142 251 171 251 c 256,36,37
 200 251 200 251 220.5 270.5 c 128,-1,38
 241 290 241 290 241 318 c 0,28,29
EndSplineSet
EndChar
StartChar: uni2079
Encoding: 8313 8313 94
Width: 341
Flags: W
LayerCount: 2
Fore
SplineSet
303 467 m 0,0,1
 303 387 303 387 262 310.5 c 128,-1,2
 221 234 221 234 153 188 c 1,3,-1
 123 240 l 1,4,5
 157 268 157 268 178.5 294.5 c 128,-1,6
 200 321 200 321 217 359 c 1,7,8
 188 354 188 354 171 354 c 0,9,10
 116 354 116 354 77 389 c 128,-1,11
 38 424 38 424 38 472 c 0,12,13
 38 522 38 522 76.5 556.5 c 128,-1,14
 115 591 115 591 171 591 c 256,15,16
 227 591 227 591 265 555.5 c 128,-1,17
 303 520 303 520 303 467 c 0,0,1
241 472 m 256,18,19
 241 495 241 495 220 511.5 c 128,-1,20
 199 528 199 528 170.5 528 c 128,-1,21
 142 528 142 528 121.5 512 c 128,-1,22
 101 496 101 496 101 472.5 c 128,-1,23
 101 449 101 449 121.5 432.5 c 128,-1,24
 142 416 142 416 171 416 c 256,25,26
 200 416 200 416 220.5 432.5 c 128,-1,27
 241 449 241 449 241 472 c 256,18,19
EndSplineSet
EndChar
StartChar: uni2080
Encoding: 8320 8320 95
Width: 353
Flags: W
LayerCount: 2
Fore
SplineSet
314 194 m 0,0,1
 314 147 314 147 303 104 c 128,-1,2
 292 61 292 61 272 37 c 1,3,4
 240 -7 240 -7 177 -7 c 0,5,6
 137 -7 137 -7 110 10 c 128,-1,7
 83 27 83 27 65 63 c 0,8,9
 38 116 38 116 38 194 c 0,10,11
 38 292 38 292 81 352 c 1,12,13
 115 396 115 396 180 396 c 0,14,15
 252 396 252 396 288 326 c 1,16,17
 314 273 314 273 314 194 c 0,0,1
253 194 m 0,18,19
 253 264 253 264 229 303 c 1,20,21
 213 331 213 331 179 333 c 0,22,23
 135 335 135 335 116 285 c 1,24,25
 101 249 101 249 101 194 c 0,26,27
 101 123 101 123 124 86 c 1,28,29
 141 56 141 56 177 56 c 0,30,31
 218 56 218 56 237 105 c 0,32,33
 253 145 253 145 253 194 c 0,18,19
EndSplineSet
EndChar
StartChar: uni2081
Encoding: 8321 8321 96
Width: 175
Flags: W
LayerCount: 2
Fore
SplineSet
137 0 m 1,0,-1
 74 0 l 1,1,-1
 74 315 l 1,2,-1
 38 315 l 1,3,-1
 38 365 l 1,4,-1
 42 365 l 2,5,6
 70 365 70 365 87 389 c 1,7,-1
 137 389 l 1,8,-1
 137 0 l 1,0,-1
EndSplineSet
EndChar
StartChar: uni2082
Encoding: 8322 8322 97
Width: 584
VWidth: 1754
Flags: W
LayerCount: 2
Fore
SplineSet
519 0 m 1,0,-1
 65 0 l 1,1,2
 68 115 68 115 122 204 c 1,3,4
 160 273 160 273 238 332 c 1,5,6
 255 342 255 342 269 353 c 1,7,-1
 303 372 l 1,8,-1
 337 391 l 1,9,-1
 370 409 l 2,10,11
 413 435 413 435 413 481 c 0,12,13
 413 519 413 519 377 544.5 c 128,-1,14
 341 570 341 570 293 570 c 0,15,16
 189 570 189 570 171 478 c 1,17,-1
 65 500 l 1,18,19
 82 582 82 582 143 630 c 128,-1,20
 204 678 204 678 293 678 c 0,21,22
 387 678 387 678 453 620 c 128,-1,23
 519 562 519 562 519 480 c 0,24,25
 519 399 519 399 450 337 c 0,26,27
 433 323 433 323 423 319 c 2,28,-1
 391 296 l 1,29,-1
 355 279 l 1,30,-1
 324 259 l 1,31,32
 276 232 276 232 246 197.5 c 128,-1,33
 216 163 216 163 192 108 c 1,34,-1
 519 108 l 1,35,-1
 519 0 l 1,0,-1
EndSplineSet
EndChar
StartChar: uni2083
Encoding: 8323 8323 98
Width: 556
VWidth: 1754
Flags: W
LayerCount: 2
Fore
SplineSet
504 221 m 0,0,1
 504 118 504 118 440.5 53 c 128,-1,2
 377 -12 377 -12 276 -12 c 0,3,4
 195 -12 195 -12 135 36 c 128,-1,5
 75 84 75 84 53 166 c 1,6,-1
 156 197 l 1,7,8
 182 96 182 96 281 96 c 0,9,10
 332 96 332 96 365.5 129.5 c 128,-1,11
 399 163 399 163 399 212 c 0,12,13
 399 270 399 270 361 296 c 0,14,15
 349 305 349 305 340.5 306.5 c 128,-1,16
 332 308 332 308 295 310 c 1,17,-1
 283 310 l 1,18,-1
 283 420 l 1,19,-1
 283 416 l 1,20,-1
 284 416 l 1,21,-1
 288 416 l 1,22,-1
 308 416 l 2,23,24
 373 416 373 416 373 481 c 0,25,26
 373 520 373 520 346 545 c 128,-1,27
 319 570 319 570 277 570 c 0,28,29
 212 570 212 570 178 505 c 1,30,-1
 79 543 l 1,31,32
 106 606 106 606 158.5 642 c 128,-1,33
 211 678 211 678 276 678 c 0,34,35
 360 678 360 678 420 619 c 128,-1,36
 480 560 480 560 480 474 c 0,37,38
 480 419 480 419 442 365 c 1,39,40
 478 331 478 331 491 300 c 128,-1,41
 504 269 504 269 504 221 c 0,0,1
EndSplineSet
EndChar
StartChar: uni2084
Encoding: 8324 8324 99
Width: 590
VWidth: 1754
Flags: W
LayerCount: 2
Fore
SplineSet
512 166 m 1,0,-1
 449 166 l 1,1,-1
 449 0 l 1,2,-1
 344 0 l 1,3,-1
 344 166 l 1,4,-1
 14 166 l 1,5,-1
 14 230 l 1,6,-1
 344 666 l 1,7,-1
 449 666 l 1,8,-1
 449 262 l 1,9,-1
 512 262 l 1,10,-1
 512 166 l 1,0,-1
344 262 m 1,11,-1
 344 512 l 1,12,-1
 154 262 l 1,13,-1
 344 262 l 1,11,-1
EndSplineSet
EndChar
StartChar: uni2085
Encoding: 8325 8325 100
Width: 341
Flags: W
LayerCount: 2
Fore
SplineSet
303 143 m 0,0,1
 303 79 303 79 255 36 c 128,-1,2
 207 -7 207 -7 134 -7 c 0,3,4
 83 -7 83 -7 38 15 c 1,5,-1
 68 69 l 1,6,7
 96 56 96 56 142 56 c 0,8,9
 184 56 184 56 212.5 80.5 c 128,-1,10
 241 105 241 105 241 143 c 0,11,12
 241 172 241 172 221 191.5 c 128,-1,13
 201 211 201 211 172 211 c 0,14,15
 151 211 151 211 139 203 c 128,-1,16
 127 195 127 195 109 171 c 1,17,-1
 48 189 l 1,18,-1
 57 389 l 1,19,-1
 281 389 l 1,20,-1
 281 328 l 1,21,-1
 117 328 l 1,22,-1
 113 263 l 1,23,24
 154 275 154 275 173 275 c 0,25,26
 226 275 226 275 264.5 236 c 128,-1,27
 303 197 303 197 303 143 c 0,0,1
EndSplineSet
EndChar
StartChar: uni2086
Encoding: 8326 8326 101
Width: 341
Flags: W
LayerCount: 2
Fore
SplineSet
303 112 m 0,0,1
 303 62 303 62 265 27.5 c 128,-1,2
 227 -7 227 -7 171 -7 c 256,3,4
 115 -7 115 -7 76.5 29 c 128,-1,5
 38 65 38 65 38 117 c 0,6,7
 38 198 38 198 79.5 274.5 c 128,-1,8
 121 351 121 351 189 396 c 1,9,-1
 220 344 l 1,10,11
 185 317 185 317 163.5 290.5 c 128,-1,12
 142 264 142 264 124 227 c 1,13,14
 146 231 146 231 171 231 c 0,15,16
 225 231 225 231 264 196 c 128,-1,17
 303 161 303 161 303 112 c 0,0,1
241 113 m 256,18,19
 241 136 241 136 220.5 152.5 c 128,-1,20
 200 169 200 169 171 169 c 256,21,22
 142 169 142 169 121.5 152.5 c 128,-1,23
 101 136 101 136 101 113 c 256,24,25
 101 90 101 90 121.5 73 c 128,-1,26
 142 56 142 56 170.5 56 c 128,-1,27
 199 56 199 56 220 73 c 128,-1,28
 241 90 241 90 241 113 c 256,18,19
EndSplineSet
EndChar
StartChar: uni2087
Encoding: 8327 8327 102
Width: 542
VWidth: 1754
Flags: W
LayerCount: 2
Fore
SplineSet
497 562 m 1,0,1
 490 552 490 552 478 537 c 128,-1,2
 466 522 466 522 457.5 510 c 0,3,4
 448 498 448 498 438 481 c 0,5,6
 346 323 346 323 315 163 c 1,7,8
 301 81 301 81 301 0 c 1,9,-1
 194 0 l 1,10,11
 197 224 197 224 289 423 c 1,12,13
 315 483 315 483 363 562 c 1,14,-1
 46 562 l 1,15,-1
 46 666 l 1,16,-1
 497 666 l 1,17,-1
 497 562 l 1,0,1
EndSplineSet
EndChar
StartChar: uni2088
Encoding: 8328 8328 103
Width: 584
VWidth: 1754
Flags: W
LayerCount: 2
Fore
SplineSet
519 212 m 0,0,1
 519 121 519 121 451.5 54.5 c 128,-1,2
 384 -12 384 -12 292 -12 c 128,-1,3
 200 -12 200 -12 132.5 55 c 128,-1,4
 65 122 65 122 65 212 c 0,5,6
 65 304 65 304 142 368 c 1,7,8
 94 419 94 419 94 488 c 0,9,10
 94 565 94 565 152.5 621.5 c 128,-1,11
 211 678 211 678 292 678 c 128,-1,12
 373 678 373 678 433 621.5 c 128,-1,13
 493 565 493 565 493 488 c 0,14,15
 493 423 493 423 442 368 c 1,16,17
 519 306 519 306 519 212 c 0,0,1
385 492 m 0,18,19
 385 525 385 525 358 547.5 c 128,-1,20
 331 570 331 570 292.5 570 c 128,-1,21
 254 570 254 570 226.5 547 c 128,-1,22
 199 524 199 524 199 492 c 0,23,24
 199 461 199 461 226.5 440.5 c 128,-1,25
 254 420 254 420 292.5 420 c 128,-1,26
 331 420 331 420 358 440.5 c 128,-1,27
 385 461 385 461 385 492 c 0,18,19
413 211 m 0,28,29
 413 252 413 252 377 281 c 128,-1,30
 341 310 341 310 292 310 c 128,-1,31
 243 310 243 310 208 281 c 128,-1,32
 173 252 173 252 173 211 c 0,33,34
 173 163 173 163 208 129.5 c 128,-1,35
 243 96 243 96 293 96 c 256,36,37
 343 96 343 96 378 129.5 c 128,-1,38
 413 163 413 163 413 211 c 0,28,29
EndSplineSet
EndChar
StartChar: uni2089
Encoding: 8329 8329 104
Width: 584
VWidth: 1754
Flags: W
LayerCount: 2
Fore
SplineSet
519 466 m 0,0,1
 519 329 519 329 449 198 c 128,-1,2
 379 67 379 67 262 -12 c 1,3,-1
 211 77 l 1,4,5
 269 125 269 125 306 170.5 c 128,-1,6
 343 216 343 216 372 281 c 1,7,8
 322 272 322 272 293 272 c 0,9,10
 199 272 199 272 132 332 c 128,-1,11
 65 392 65 392 65 474 c 0,12,13
 65 560 65 560 131 619 c 128,-1,14
 197 678 197 678 293 678 c 256,15,16
 389 678 389 678 454 617.5 c 128,-1,17
 519 557 519 557 519 466 c 0,0,1
413 474 m 256,18,19
 413 513 413 513 377 541.5 c 128,-1,20
 341 570 341 570 292 570 c 128,-1,21
 243 570 243 570 208 543 c 128,-1,22
 173 516 173 516 173 475.5 c 128,-1,23
 173 435 173 435 208 407 c 128,-1,24
 243 379 243 379 293 379 c 256,25,26
 343 379 343 379 378 407 c 128,-1,27
 413 435 413 435 413 474 c 256,18,19
EndSplineSet
EndChar
StartChar: .notdef
Encoding: 65536 -1 0
Width: 457
Flags: W
LayerCount: 2
Fore
SplineSet
401 585 m 1,0,-1
 401 0 l 1,1,-1
 57 0 l 1,2,-1
 57 585 l 1,3,-1
 401 585 l 1,0,-1
108 534 m 1,4,-1
 108 51 l 1,5,-1
 350 51 l 1,6,-1
 350 534 l 1,7,-1
 108 534 l 1,4,-1
EndSplineSet
EndChar
